<svg width="420" height="259" viewBox="0 0 420 259" fill="none" xmlns="http://www.w3.org/2000/svg">
<rect width="420" height="259" fill="#FB929E"/>
<g opacity="0.504511">
<path opacity="0.504511" fill-rule="evenodd" clip-rule="evenodd" d="M419.818 227.579C425.891 247.505 278.632 260.501 151.883 251.431C25.1347 242.361 -33.0115 206.942 27.4708 188.069C87.9528 169.197 413.746 207.654 419.818 227.579Z" fill="#F2F2F2"/>
</g>
<g opacity="0.5">
<path opacity="0.5" fill-rule="evenodd" clip-rule="evenodd" d="M62.5251 131.297C63.9208 129.489 66.5114 124.898 68.4759 124.252C69.7414 123.836 69.3724 128.14 69.388 128.96C69.4488 132.135 69.1086 135.29 68.6884 138.438C67.9311 144.116 65.4554 149.172 62.0597 154.004C60.3125 156.49 58.2627 159.007 55.424 160.558C54.1175 161.273 52.5454 161.393 51.2549 162.008C49.7518 162.725 50.5703 162.146 49.893 163.568C48.9526 165.542 48.6517 168.09 48.2166 170.197C46.2186 179.87 41.3809 231.001 42.2196 240.839C42.294 241.711 40.9554 241.92 40.8883 240.855C40.5332 235.211 43.6071 196.12 45.1583 183.337C46.7092 170.553 48.2787 159.259 49.8522 154.836C51.7615 149.47 55.2094 143.018 58.0796 138.014C59.413 135.69 60.8662 133.445 62.5251 131.297Z" fill="#134650"/>
<path opacity="0.5" fill-rule="evenodd" clip-rule="evenodd" d="M72.8857 193.995C76.518 191.573 80.4499 196.144 77.1627 198.566C75.3458 199.905 73.4461 199.429 72.3769 198.313C71.6826 199.082 71.0329 199.885 70.4084 200.564C68.5061 202.632 66.7084 204.75 64.9901 206.917C61.4206 211.419 58.3617 216.175 55.1632 220.844C52.007 225.453 48.8759 230.084 46.015 234.81C43.5915 238.813 40.3611 243.522 39.5314 247.911C40.7903 238.603 45.5675 229.657 51.2563 221.451C56.8988 213.313 63.3741 204.425 72.1108 198.003C71.2216 196.815 71.197 195.12 72.8857 193.995Z" fill="#C1DEE2"/>
<path opacity="0.5" fill-rule="evenodd" clip-rule="evenodd" d="M3.96052 171.295C5.99312 171.656 9.31441 175.832 10.9899 177.423C12.9811 179.314 14.7876 181.329 16.4905 183.441C20.1564 187.986 23.4349 192.818 26.2227 197.857C30.7674 206.072 34.4087 214.505 37.0511 223.451C38.6687 228.926 39.7161 234.602 40.3366 240.238C40.4538 241.301 41.6808 249.496 39.9127 249.717C38.3226 249.915 38.8139 243.494 38.7372 242.621C37.8699 232.766 35.272 223.178 31.6587 213.89C30.8714 211.867 30.1403 209.388 28.8814 207.567C27.975 206.256 28.8749 206.713 27.2819 206.217C25.9141 205.791 24.3556 205.895 22.9549 205.373C19.912 204.24 17.4756 202.039 15.3398 199.826C11.1894 195.525 7.9003 190.873 6.18585 185.362C5.23482 182.306 4.36085 179.233 3.87585 176.083C3.75039 175.268 2.65131 171.062 3.96052 171.295Z" fill="#134650"/>
<path opacity="0.5" fill-rule="evenodd" clip-rule="evenodd" d="M11.9818 101.814C19.6382 113.874 25.93 127.12 29.9925 140.537C32.4542 148.667 34.1755 157.009 35.8858 165.29C38.5339 178.113 41.0387 190.935 41.7512 203.986C42.4681 217.112 43.8854 232.252 39.153 244.894C41.5171 232.059 39.2663 218.396 38.8677 205.48C38.6774 199.315 38.1256 193.209 37.4015 187.08C36.699 181.134 35.5513 175.216 34.4827 169.317C33.9622 166.444 33.4155 163.575 32.8588 160.708C32.6923 159.852 32.6223 157.314 32.0247 156.73C31.4235 156.141 28.3553 155.902 27.3921 155.47C25.4524 154.601 23.6278 153.366 22.0131 152.061C18.9176 149.56 16.2247 146.292 14.0992 143.07C9.18136 135.617 7.21522 126.52 7.31461 117.887C7.33368 116.211 10.3017 98.1623 9.10968 97.9138C9.18146 97.8374 9.24932 97.7586 9.31333 97.6766C10.2158 99.0489 11.1013 100.43 11.9818 101.814Z" fill="#8C2776"/>
<path opacity="0.5" fill-rule="evenodd" clip-rule="evenodd" d="M94.6201 145.307C94.7384 145.153 95.5074 144.076 95.1201 144.145C95.9083 144.005 94.0359 145.332 96 144.518C95.0672 145.318 95.6057 146.357 95.618 147.433C95.6382 149.182 95.3164 150.915 94.954 152.626C94.381 155.33 93.5276 157.958 92.289 160.473C89.5895 165.954 85.0055 171.229 79.5636 174.656C76.877 176.347 74.2443 176.923 71.1803 177.702C69.2448 178.194 69.0913 179.103 68.0639 180.809C65.9254 184.362 63.8248 187.901 61.9384 191.573C59.6863 195.959 57.5 200.349 55.4375 204.811C48.4896 219.842 42.8347 235.415 39.8652 251.531C39.7924 242.034 42.2116 232.253 45.2629 223.2C47.4858 216.605 50.3793 210.247 53.4658 203.954C54.2135 202.429 55.3469 200.468 55.6648 198.785C55.887 197.605 55.207 196.471 54.8958 195.229C53.682 190.391 53.7691 184.97 54.8347 180.106C56.0099 174.743 59.408 172.254 65.1565 171.494C67.2588 171.216 69.9311 171.318 71.8586 170.504C73.9589 169.617 74.8252 166.703 76.0197 164.833C79.2275 159.808 83.0388 154.989 87.4151 150.755C88.6268 149.583 89.9299 148.501 91.3124 147.498C92.1844 146.866 94.0262 146.086 94.6201 145.307Z" fill="#B789CC"/>
<path opacity="0.5" fill-rule="evenodd" clip-rule="evenodd" d="M28.5183 243.003C28.3704 242.092 29.1476 241.274 30.1612 241.274H50.5623C51.5758 241.274 52.3531 242.092 52.2053 243.003L50.6285 252.713C50.1478 255.673 47.3509 257.866 44.0562 257.866H36.6674C33.3726 257.866 30.5758 255.673 30.0951 252.713L28.5183 243.003Z" fill="#C1DEE2"/>
</g>
<g opacity="0.7">
<path opacity="0.7" fill-rule="evenodd" clip-rule="evenodd" d="M332.777 160.48C337.925 160.237 344.292 162.966 344.841 168.048C345.24 171.74 345.116 175.422 345.733 179.109C346.227 182.056 347.271 184.884 348.695 187.568C350.065 190.149 352.905 192.346 353.644 195.104C354.115 196.861 353.851 199.332 353.202 201.051C352.412 203.14 352.832 202.975 354.405 204.729C357.489 208.164 360.265 211.688 362.229 215.791C365.056 221.702 366.911 228.61 365.861 235.08C365.728 235.902 365.569 238.85 364.323 239.056C362.932 239.287 363.583 237.601 363.657 237.056C364.13 233.58 364.551 230.543 363.98 227.013C361.777 213.393 351.019 204.42 344.014 192.862C343.629 192.265 342.816 190.846 342.251 189.91C341.359 188.431 340.462 185.618 339.253 184.522C336.978 182.457 339.07 186.609 339.513 187.401C340.074 188.404 340.69 189.469 341.265 190.348C343.893 194.42 346.827 198.865 349.541 203.063C337.802 205.492 329.534 192.675 326.384 184.248C323.788 177.306 320.683 161.074 332.777 160.48Z" fill="#AC6981"/>
<path opacity="0.7" fill-rule="evenodd" clip-rule="evenodd" d="M401.772 147.587C393.167 148.207 387.643 153.365 385.071 160.578C383.685 164.465 383.526 168.458 382.756 172.453C381.597 178.463 379.104 183.018 374.232 187.3C372.723 188.626 371.61 189.987 370.82 191.444C369.251 192.898 367.885 194.544 366.881 196.556C365.599 199.126 365.236 202.209 366.716 204.771C367.114 205.46 368.107 206.842 369.136 207.47C365.284 214.922 363.166 223.083 363.404 231.234C363.549 236.154 363.813 241.076 364.122 245.99C364.205 247.31 364.678 249.488 365.388 247.276C366.039 245.251 365.223 242.074 365.148 239.96C364.781 229.659 364.467 220.293 369.135 210.669C369.625 209.66 370.144 208.659 370.685 207.667C370.717 207.65 370.746 207.63 370.776 207.61C370.796 207.625 370.815 207.64 370.836 207.654C370.87 207.598 370.918 207.532 370.973 207.457C371.128 207.312 371.263 207.128 371.392 206.924C371.806 206.402 372.275 205.79 372.278 205.455C372.278 205.452 372.276 205.448 372.276 205.445C375.166 201.16 378.477 197.112 381.858 193.142C381.833 193.171 385.526 188.604 384.955 191.129C384.68 192.346 381.963 194.664 380.866 195.953C378.439 198.821 375.589 202.456 373.221 205.97C372.902 206.136 372.452 206.953 372.126 207.561C371.946 207.869 371.778 208.18 371.614 208.451C380.006 210.969 386.534 205.897 390.985 199.997C390.99 199.99 390.995 199.983 391 199.976C392.355 198.346 393.743 196.727 395.476 195.438C398.368 193.288 401.466 192.908 404.876 191.85C414.176 188.965 418.129 178.019 419.385 169.897C420.802 160.734 413.872 146.684 401.772 147.587Z" fill="#8A89CC"/>
<path opacity="0.7" fill-rule="evenodd" clip-rule="evenodd" d="M384.774 121.928C375.942 130.276 371.675 141.855 368.296 152.741C364.523 164.899 362.03 177.245 361.934 189.886C361.872 198.191 361.623 206.548 362.157 214.844C362.346 217.79 362.669 220.741 363.183 223.655C363.226 223.895 364.376 230.402 365.477 228.886C366.103 228.024 364.298 222.136 364.161 221.155C363.394 215.631 363.216 210.066 363.253 204.503C363.314 195.342 363.017 186.229 364.04 177.102C364.192 175.739 364.313 174.308 364.669 172.975C365.047 171.557 364.565 172.176 365.798 171.615C366.996 171.07 368.476 171.148 369.718 170.463C374.647 167.749 377.169 160.776 379.131 156.201C381.376 150.97 382.74 145.39 383.83 139.885C384.63 135.84 385.202 131.819 385.525 127.722C385.628 126.43 385.634 125.08 385.913 123.81C385.988 123.468 386.366 122.862 386.352 122.559C386.323 121.917 385.897 121.539 385.862 121C385.492 121.302 385.129 121.612 384.774 121.928Z" fill="#8A89CC"/>
<path opacity="0.7" fill-rule="evenodd" clip-rule="evenodd" d="M336.615 233.156C336.615 246.963 348.938 258.155 364.14 258.155C379.342 258.155 391.665 246.963 391.665 233.156" fill="#8A89CC"/>
<path opacity="0.7" fill-rule="evenodd" clip-rule="evenodd" d="M383.004 211.269C389.816 210.813 397.423 215.804 400.709 220.999C403.359 225.186 402.912 230.686 401.276 235.135C400.18 238.114 397.789 242.361 393.801 242.402C388.812 242.454 388.572 236.853 388.475 233.58C388.347 229.227 387.741 225.435 383.965 222.468C383.499 222.102 383.009 221.76 382.52 221.417C382.086 221.112 381.652 220.808 381.234 220.488C381.167 220.436 381.099 220.385 381.032 220.334C379.697 219.315 378.295 218.244 378.124 216.564C377.876 214.129 379.39 213.691 381.7 214.143C381.775 214.158 381.977 214.227 382.253 214.322C383.433 214.728 385.951 215.595 385.474 214.559C385.295 214.169 384.64 213.859 383.813 213.627C381.674 213.416 379.122 213.171 378.388 213.317C370.472 214.895 367.389 224.854 366.571 231.182C366.483 231.864 366.411 232.55 366.349 233.236H364.894C364.995 231.579 365.129 229.924 365.434 228.285C366.601 222.018 370.249 212.812 378.25 211.795C378.545 211.757 379.631 211.751 380.946 211.821C381.569 211.504 382.268 211.313 383.004 211.269Z" fill="#AC6981"/>
</g>
<path fill-rule="evenodd" clip-rule="evenodd" d="M353.766 213.839C352.489 211.891 350.47 210.571 348.434 209.399C344.47 207.118 342.268 205.657 339.889 201.633C338.489 199.266 337.034 196.752 334.434 195.354C332.541 194.335 329.633 193.744 327.916 195.091C325.367 197.467 325.625 201.241 326.908 204.409C328.497 208.335 331.194 210.411 335.393 211.131C337.759 211.536 339.495 212.35 341.218 214.028C342.596 215.371 343.707 217.175 345.277 218.327C347.626 220.05 350.063 220.535 352.622 219.657C348.807 215.768 344.561 211.922 339.935 208.933C339.494 208.627 337.126 207.595 337.327 206.883C337.548 206.099 340.328 208.318 340.309 208.305C341.668 209.221 342.971 210.223 344.261 211.24C344.259 211.242 344.257 211.243 344.254 211.245C345.581 212.288 346.906 213.35 348.217 214.432C348.755 214.893 349.284 215.363 349.802 215.85C350.562 216.564 352.076 218.72 353.069 219.054C353.281 219.125 353.466 219.152 353.629 219.145C354.474 219.929 355.305 220.723 356.112 221.534C358.22 223.65 360.172 225.94 361.532 228.535C361.929 229.293 362.704 232.268 363.439 232.725C364.782 233.56 363.876 231.613 363.633 231.02C361.612 226.106 358.444 222.21 354.441 218.542C354.965 217.324 354.283 214.629 353.766 213.839Z" fill="#F2F2F2"/>
<path fill-rule="evenodd" clip-rule="evenodd" d="M319.23 223.351C319.947 221.909 322.494 221.177 324.115 220.938C326.12 220.642 328.287 220.695 330.333 220.873C333.703 221.167 337.213 222.235 340.426 223.305C340.813 223.434 345.56 224.949 345.325 225.43C345.092 225.906 340.287 223.938 339.258 223.64C337.063 223.002 334.968 222.147 332.683 221.893C330.318 221.63 327.954 221.813 325.692 222.288C325.402 222.349 324.394 222.346 324.498 222.762C324.599 223.169 326.106 222.643 326.384 222.59C327.531 222.37 328.713 222.241 329.898 222.204C332.118 222.135 334.32 222.452 336.46 223.186C336.293 224.411 335.238 225.172 333.884 225.146C332.713 225.124 331.463 224.739 330.336 224.782C329.56 224.812 328.84 225.032 328.183 225.375C326.448 226.282 325.68 227.58 323.373 227.248C321.565 226.988 318.2 225.424 319.23 223.351Z" fill="#F2F2F2"/>
<path fill-rule="evenodd" clip-rule="evenodd" d="M308.629 204.571C306.169 204.887 304.031 207.268 303.444 209.417C302.972 211.15 303.739 213.146 304.812 214.67C305.53 215.691 306.847 217.087 308.263 216.818C310.034 216.483 309.497 214.401 309.169 213.187C308.731 211.573 308.525 210.131 309.532 208.769C309.656 208.601 309.791 208.439 309.926 208.278C310.046 208.135 310.166 207.992 310.278 207.844C310.296 207.821 310.314 207.797 310.332 207.773C310.692 207.302 311.069 206.808 310.943 206.176C310.761 205.261 310.177 205.207 309.409 205.538C309.385 205.549 309.321 205.589 309.234 205.643C308.861 205.877 308.067 206.376 308.12 205.96C308.14 205.803 308.338 205.642 308.604 205.498C309.338 205.268 310.214 204.996 310.49 204.998C313.466 205.017 315.661 208.47 316.652 210.745C316.765 211.002 316.871 211.262 316.973 211.523L317.487 211.42C317.263 210.804 317.029 210.191 316.734 209.596C315.626 207.368 313.313 204.233 310.37 204.427C310.261 204.434 309.876 204.509 309.419 204.628C309.163 204.556 308.895 204.535 308.629 204.571Z" fill="#F2F2F2"/>
</svg>
