<svg width="240" height="148" viewBox="0 0 240 148" fill="none" xmlns="http://www.w3.org/2000/svg">
<rect width="240" height="148" fill="#FFDCE0"/>
<path opacity="0.1" d="M196.904 44.1022C195.32 40.426 193.18 37.0155 190.558 33.9906L102.512 33.1231L175.004 22.9414C170.321 21.0765 165.335 20.0873 160.295 20.023C153.36 14.4801 144.822 11.3238 135.949 11.0236C127.077 10.7234 118.344 13.2952 111.051 18.3567C105.222 15.3604 98.761 13.8032 92.2074 13.8156C72.6444 13.8156 56.3425 27.3642 52.6859 45.3325L196.904 44.1022Z" fill="#6C63FF"/>
<path opacity="0.1" d="M200 59.1708C200.004 54.2984 199.073 49.4705 197.256 44.9494L44.661 60.9663C43.0875 63.8124 41.8838 66.8478 41.0792 69.9988L88.3328 77.0441L40 82.1832C41.4545 102.523 58.8918 118.585 80.1927 118.585C90.9148 118.585 100.659 114.515 107.877 107.877C115.12 114.641 124.956 118.799 135.793 118.799C151.874 118.799 165.753 109.643 172.216 96.4046C185.184 92.2901 195.256 81.9558 198.704 69.0286L138.953 59.7532H200C199.997 59.5585 200 59.3654 200 59.1708Z" fill="#6C63FF"/>
<path d="M84.6529 135.412C104.177 135.412 120.004 132.818 120.004 129.617C120.004 126.417 104.177 123.823 84.6529 123.823C65.1291 123.823 49.3019 126.417 49.3019 129.617C49.3019 132.818 65.1291 135.412 84.6529 135.412Z" fill="#6C63FF"/>
<path d="M121.214 92.2886C119.624 92.6873 117.992 91.9117 117.992 91.9117C117.992 91.9117 116.6 90.2999 115.425 90.0819C114.251 89.8639 113.796 91.7716 113.099 92.2621C112.616 92.6063 109.134 92.3602 107.025 92.1765L106.662 92.1438C106.627 92.1173 106.591 92.0893 106.552 92.0643C106.552 92.0643 104.527 91.4414 104.105 90.8901C103.683 90.3388 100.863 89.3188 99.9877 89.378C99.1125 89.4372 96.5258 89.5773 96.5258 89.5773C96.5258 89.5773 95.512 88.4234 95.0541 88.5433C94.5963 88.6632 93.0047 88.5339 93.0047 88.5339C93.0047 88.5339 92.5671 87.4095 92.1295 85.7977C91.9255 85.0455 91.2465 84.5176 90.5815 84.1703C91.1795 82.1458 90.1143 76.3713 86.8066 75.2422C86.0855 74.9962 85.7165 74.1786 85.1029 73.7301C84.5531 73.3299 83.653 72.3861 84.0937 70.6809C84.7167 68.2935 86.2615 64.5342 86.2615 64.5342L87.4124 62.2356C87.305 62.3984 87.183 62.5511 87.048 62.6919C87.2037 62.4925 87.3594 62.2963 87.4933 62.1312C88.6418 62.7113 89.8945 63.0565 91.178 63.1466C92.4768 63.6714 93.774 64.1339 94.2786 64.1168C95.4325 64.0763 98.3759 65.5495 98.3759 65.5495C98.3759 65.5495 105.457 67.574 106.929 67.7376C108.4 67.9011 109.117 65.9871 109.117 65.9871C109.117 65.9871 109.881 62.2138 108.523 61.214C107.165 60.2142 106.376 64.7958 106.376 64.7958L97.1113 61.4569L96.5398 61.1563C96.9836 60.6868 97.3358 60.1386 97.5785 59.5399C97.7218 59.1832 97.8526 58.7752 98.1937 58.5977C98.2854 58.5521 98.3845 58.5231 98.4864 58.512C98.571 58.5066 98.6557 58.5066 98.7403 58.512C100.347 58.6101 101.729 59.8747 103.339 59.8809C103.398 59.8809 103.457 59.8809 103.517 59.8809C103.824 59.88 104.123 59.7878 104.378 59.6162C104.521 59.4992 104.639 59.354 104.725 59.1895C104.81 59.025 104.86 58.8448 104.873 58.66C104.849 58.71 104.824 58.7589 104.795 58.8064C104.837 58.5773 104.837 58.3424 104.795 58.1134C104.695 57.5667 104.41 57.0762 104.155 56.5825C104.083 56.4673 104.042 56.3353 104.037 56.1994C104.044 56.1285 104.065 56.0598 104.1 55.9974C104.135 55.9351 104.181 55.8803 104.238 55.8366C104.24 55.8512 104.243 55.8658 104.247 55.8802C104.368 55.766 104.503 55.6671 104.649 55.5858C105.042 55.3277 105.379 54.9914 105.637 54.5979C105.895 54.2044 106.07 53.762 106.15 53.2981C106.111 53.4134 106.064 53.5271 106.014 53.6392C106.254 52.8486 106.196 51.9978 105.851 51.2472C105.762 51.0335 105.619 50.8464 105.437 50.7037C104.856 50.2956 104.076 50.7301 103.367 50.7768C102.744 50.8173 102.14 50.5386 101.578 50.2567C100.618 49.7755 99.6638 49.2554 98.8649 48.5437C97.9569 47.7292 97.2826 46.6905 96.4635 45.7888C95.6443 44.8871 94.5931 44.0835 93.3738 43.9932C91.1577 43.8219 89.0678 46.0177 86.9608 45.3013C85.9329 44.9541 85.257 44.0041 84.5422 43.1881C83.8274 42.372 82.8448 41.5887 81.7733 41.7647C81.0289 41.8893 80.3842 42.467 79.6305 42.4452C79.2365 42.4328 78.8705 42.2568 78.4967 42.1338C77.5919 41.8301 76.3523 41.978 76.03 42.8782C75.9666 43.0615 75.9443 43.2565 75.9644 43.4494C75.9846 43.6423 76.0469 43.8285 76.1468 43.9947C76.0991 44.0616 76.0564 44.1319 76.0191 44.205C75.9417 44.3476 75.9148 44.5123 75.9428 44.6722C75.3023 45.2471 74.8277 45.9832 74.5685 46.8039C74.3093 47.6245 74.2749 48.4997 74.4689 49.3381C74.663 50.1766 75.0783 50.9477 75.6717 51.5711C76.2651 52.1944 77.0148 52.6472 77.8427 52.8823C77.8723 52.996 77.9019 53.1097 77.9299 53.2249C78.232 54.4973 78.3893 55.93 77.9423 56.8955C77.9143 56.9547 77.8847 57.0123 77.852 57.0684L77.8131 57.0855L77.8302 57.1027L77.8131 57.0855L77.757 57.0279L77.4175 56.6728C77.3988 56.3022 77.1902 55.3086 75.7387 53.4648C73.8279 51.0369 73.4697 47.0191 73.4697 47.0191C73.4697 47.0191 72.9932 44.9509 73.4697 44.3545C73.9463 43.758 74.7436 37.1908 74.7436 37.1908L76.0611 33.4938C76.0611 33.4938 82.4663 26.9686 79.7987 26.1744C77.9875 25.634 75.8275 28.4185 74.6284 30.2592C74.0394 31.1631 73.6585 32.1865 73.5133 33.2555L69.8926 43.1616C69.8926 43.1616 69.5344 44.356 69.8926 46.4242C70.2508 48.4923 71.0466 52.1535 71.0466 52.1535L73.0711 57.2849C73.0711 57.2849 73.817 59.5009 73.7516 60.4633C73.6628 60.521 73.3514 61.1377 73.082 61.6983L72.8842 62.0097L72.8702 62.1359C72.7378 62.4178 72.6459 62.6202 72.6459 62.6202C72.6459 62.6202 71.5184 65.9482 72.4606 67.9898C73.4028 70.0315 73.4402 70.9783 73.4402 70.9783L74.1425 74.0026L74.4353 76.6501L76.9612 82.8964L79.2879 86.2182C79.2879 86.2182 79.0698 88.6647 78.5917 89.0027C78.1136 89.3406 78.3332 91.091 78.3332 91.091L78.0342 95.6851C78.0342 95.6851 77.0998 97.0587 77.0407 99.2856C76.9815 101.513 76.642 102.151 76.642 102.151C76.642 102.151 76.4863 104.02 76.9207 104.876C77.3552 105.733 76.2246 106.627 76.2246 106.627L77.1948 109.958L76.8164 114.175C76.8164 114.175 76.9924 114.223 77.2836 114.297L77.2244 114.599L75.6422 122.588C75.6422 122.588 74.7872 124.777 74.7483 125.293L71.9825 130.287C71.9825 130.287 69.6746 132.575 70.7694 132.793C71.8642 133.011 75.0473 131.042 75.0473 131.042C75.0473 131.042 77.6729 128.217 78.707 127.96C79.741 127.703 80.8872 126.964 80.5571 125.891C80.2269 124.818 79.467 123.186 80.1989 121.454C80.6661 120.364 81.6597 117.405 82.3418 115.34C82.3791 115.226 82.4149 115.117 82.4508 115.011C82.6312 114.995 82.8096 114.961 82.9834 114.91C84.6544 114.393 85.5296 114.754 85.5296 114.754L88.5134 102.681L89.169 96.6226L93.3473 100.108C94.174 100.797 95.2003 101.203 96.275 101.265C97.9211 101.362 100.489 101.6 102.349 102.174L103.127 98.9321C103.127 98.9321 105.354 99.0131 105.832 98.2562C106.027 97.9448 106.218 97.68 106.376 97.4776L106.737 97.4215L116.593 95.8969C118.423 95.8969 120.93 94.662 120.93 94.662L122.463 94.3645C122.463 94.3645 124.749 93.9067 124.955 93.5282C125.16 93.1498 122.807 91.893 121.214 92.2886Z" fill="url(#paint0_linear)"/>
<path d="M76.4894 43.6584C76.8009 42.78 78.0187 42.6321 78.9048 42.9295C79.2692 43.051 79.629 43.2239 80.0136 43.241C80.7518 43.2628 81.3825 42.6959 82.1113 42.576C83.1594 42.4016 84.1203 43.1678 84.8195 43.9667C85.5187 44.7656 86.1822 45.6953 87.1882 46.0364C89.2485 46.7309 91.2948 44.5881 93.4626 44.7547C94.6524 44.8466 95.6802 45.6299 96.4822 46.5129C97.2842 47.3959 97.9445 48.4113 98.8322 49.2086C99.6109 49.9094 100.545 50.4187 101.487 50.8905C102.037 51.1662 102.624 51.4387 103.238 51.3982C103.932 51.353 104.696 50.931 105.262 51.3266C105.441 51.4665 105.58 51.6499 105.667 51.8592C106.365 53.3106 105.803 55.2432 104.437 56.0966C104.199 56.2446 103.909 56.4081 103.895 56.6931C103.899 56.8262 103.939 56.9557 104.01 57.0684C104.259 57.5512 104.54 58.0324 104.633 58.5665C104.727 59.1007 104.601 59.7158 104.166 60.0397C103.882 60.2284 103.545 60.3207 103.205 60.3029C101.629 60.2951 100.277 59.0571 98.7045 58.9621C98.5032 58.9391 98.2995 58.9702 98.1143 59.0524C97.781 59.2253 97.6471 59.6255 97.5116 59.9743C96.7828 61.7948 94.9732 63.0609 93.0421 63.4082C91.1111 63.7555 89.0943 63.2665 87.3657 62.3383C87.2393 62.2779 87.1232 62.198 87.0215 62.1016C86.8772 61.9264 86.7754 61.7201 86.7241 61.4989C86.1946 59.8248 85.4783 58.0729 84.0113 57.1058C83.0597 56.4828 81.7687 56.1324 81.3374 55.0813C81.0664 54.4163 81.2361 53.661 81.1676 52.9446C81.1002 52.3304 80.8608 51.7477 80.4771 51.2634C80.0933 50.7792 79.5808 50.4129 78.9983 50.2069C78.7429 50.1212 78.4626 50.0605 78.2757 49.8658C78.1239 49.6747 78.0271 49.4459 77.9954 49.204C77.7633 48.1497 77.6091 47.0362 77.2852 46.0068C77.0376 45.2001 76.1577 44.5818 76.4894 43.6584Z" fill="#663D5B"/>
<g opacity="0.1">
<path opacity="0.1" d="M104.348 59.5554C104.064 59.7415 103.727 59.8316 103.387 59.8124C101.813 59.8124 100.461 58.5665 98.8883 58.4731C98.6871 58.4495 98.4833 58.4802 98.298 58.5619C97.9632 58.7347 97.8308 59.135 97.6954 59.4838C96.9665 61.3058 95.1554 62.5719 93.2243 62.9192C91.2932 63.2665 89.2765 62.7775 87.5495 61.8493C87.4232 61.7887 87.3071 61.7089 87.2053 61.6126C87.0613 61.4372 86.9595 61.231 86.9079 61.01C86.3784 59.3343 85.662 57.5839 84.195 56.6152C83.2419 55.9845 81.9509 55.6435 81.5211 54.5907C81.2486 53.9242 81.4183 53.1689 81.3514 52.4541C81.2841 51.8396 81.0447 51.2566 80.6606 50.7722C80.2765 50.2879 79.7635 49.9218 79.1805 49.7163C78.9251 49.6307 78.6447 49.5684 78.4579 49.3753C78.306 49.1838 78.2095 48.9543 78.1791 48.7118C77.9455 47.6591 77.7929 46.5441 77.469 45.5162C77.2509 44.8279 76.5642 44.2704 76.5984 43.5353C76.5783 43.5742 76.5606 43.6142 76.5455 43.6553C76.2122 44.5787 77.0937 45.197 77.3444 45.9912C77.6683 47.019 77.8209 48.1341 78.0545 49.1868C78.0849 49.4293 78.1814 49.6588 78.3333 49.8502C78.5202 50.0434 78.8005 50.1056 79.0559 50.1913C79.6391 50.3969 80.1523 50.7632 80.5364 51.2478C80.9205 51.7325 81.1598 52.3158 81.2268 52.9306C81.2937 53.6454 81.124 54.4007 81.3965 55.0672C81.8263 56.1247 83.1173 56.4688 84.0704 57.0918C85.5343 58.062 86.2507 59.8108 86.7833 61.4865C86.8349 61.7075 86.9367 61.9137 87.0807 62.0892C87.1825 62.1854 87.2986 62.2653 87.4249 62.3259C89.1519 63.2603 91.1624 63.7415 93.0997 63.3958C95.037 63.05 96.8373 61.7824 97.5708 59.9603C97.7109 59.6115 97.8402 59.2113 98.1735 59.0384C98.3588 58.9567 98.5625 58.926 98.7637 58.9496C100.337 59.0446 101.688 60.2827 103.263 60.2889C103.603 60.3067 103.94 60.215 104.224 60.0273C104.364 59.9132 104.48 59.7714 104.564 59.6106C104.647 59.4499 104.697 59.2737 104.71 59.0929C104.631 59.2756 104.506 59.4349 104.348 59.5554V59.5554Z" fill="black"/>
<path opacity="0.1" d="M104.619 55.6076C104.381 55.7634 104.09 55.9191 104.076 56.2041C104.074 56.2613 104.083 56.3183 104.102 56.3723C104.221 56.2603 104.352 56.1635 104.495 56.0842C104.88 55.8319 105.209 55.503 105.462 55.118C105.714 54.733 105.885 54.3001 105.963 53.8463C105.733 54.5715 105.258 55.1941 104.619 55.6076V55.6076Z" fill="black"/>
</g>
<path d="M80.5649 120.548C79.8438 122.242 80.5851 123.837 80.9153 124.889C81.2454 125.942 80.1179 126.66 79.1057 126.914C78.0934 127.168 75.5239 129.93 75.5239 129.93C75.5239 129.93 72.4092 131.857 71.3378 131.643C70.2664 131.43 72.5245 129.191 72.5245 129.191L75.2311 124.304C75.27 123.799 76.1063 121.656 76.1063 121.656L77.6543 113.839L77.8598 112.8L83.3478 112.468C83.3478 112.468 83.0597 113.359 82.6626 114.563C81.9945 116.587 81.0165 119.49 80.5649 120.548Z" fill="#CC818C"/>
<path d="M124.364 93.2214C124.17 93.5921 121.932 94.039 121.932 94.039L120.432 94.3302C120.432 94.3302 117.979 95.5387 116.188 95.5387L106.542 97.0322L105.248 97.2331V91.7607C105.248 91.7607 105.899 91.8292 106.821 91.9164C108.881 92.0971 112.29 92.3369 112.762 92.0005C113.444 91.5146 113.891 89.6458 115.039 89.8607C116.187 90.0757 117.551 91.6517 117.551 91.6517C117.551 91.6517 119.147 92.4101 120.705 92.0207C122.262 91.6314 124.559 92.8508 124.364 93.2214Z" fill="#CC818C"/>
<path opacity="0.1" d="M106.883 96.6086C106.883 96.6086 106.745 96.7643 106.542 97.0306L105.248 97.2315V91.7607C105.248 91.7607 105.899 91.8292 106.821 91.9164C108.369 93.1389 106.883 96.6086 106.883 96.6086Z" fill="black"/>
<path d="M88.2549 95.344L93.4361 99.6672C94.2453 100.342 95.2498 100.739 96.3015 100.799C97.9118 100.894 100.425 101.126 102.25 101.69L103.01 98.5163C103.01 98.5163 105.191 98.5942 105.658 97.8544C105.932 97.4177 106.238 97.0014 106.572 96.6086C106.572 96.6086 108.15 92.9302 106.359 91.8012C106.359 91.8012 104.373 91.1969 103.964 90.6519C103.554 90.1068 100.791 89.1148 99.9347 89.1724C99.0782 89.23 96.5476 89.3671 96.5476 89.3671C96.5476 89.3671 95.554 88.238 95.1071 88.3548C94.6601 88.4716 93.1012 88.3548 93.1012 88.3548C93.1012 88.3548 92.673 87.2538 92.2447 85.6762C91.8165 84.0987 89.2671 83.5349 89.2671 83.5349L88.2549 95.344Z" fill="#565987"/>
<path opacity="0.1" d="M88.2549 95.344L93.4361 99.6672C94.2453 100.342 95.2498 100.739 96.3015 100.799C97.9118 100.894 100.425 101.126 102.25 101.69L103.01 98.5163C103.01 98.5163 105.191 98.5942 105.658 97.8544C105.932 97.4177 106.238 97.0014 106.572 96.6086C106.572 96.6086 108.15 92.9302 106.359 91.8012C106.359 91.8012 104.373 91.1969 103.964 90.6519C103.554 90.1068 100.791 89.1148 99.9347 89.1724C99.0782 89.23 96.5476 89.3671 96.5476 89.3671C96.5476 89.3671 95.554 88.238 95.1071 88.3548C94.6601 88.4716 93.1012 88.3548 93.1012 88.3548C93.1012 88.3548 92.673 87.2538 92.2447 85.6762C91.8165 84.0987 89.2671 83.5349 89.2671 83.5349L88.2549 95.344Z" fill="black"/>
<path d="M85.9377 56.5856L85.3646 56.6931H85.3288L85.2447 56.7086L84.2636 56.8909L83.9615 57.249L83.949 57.2615L82.9788 58.4108L82.1612 59.2128L82.1534 59.2222L81.462 59.8949L80.2924 61.0582L80.0962 61.5425L79.6695 62.6155L79.5589 62.8881L78.391 64.1339L77.645 65.7302L75.9008 66.7424L74.0242 65.7691L73.1677 64.5232L73.3624 62.7386L73.4013 62.3819L73.9729 61.4647L74.4914 60.63L75.5037 59.1894L77.4503 57.8657L77.7992 57.7739L78.1901 57.6711C78.2199 57.6285 78.2475 57.5843 78.2726 57.5387C78.3056 57.4839 78.3352 57.4273 78.3614 57.3689C78.799 56.4252 78.6448 55.0221 78.3489 53.7778C78.1221 52.847 77.8217 51.9357 77.4503 51.0525L82.5895 50.3128C82.5895 50.3128 82.5396 51.3094 82.5396 52.8636C82.5396 53.253 82.5396 53.675 82.5505 54.1266C82.5755 55.5282 83.8774 56.1356 84.86 56.3941C85.1131 56.4615 85.37 56.5135 85.6293 56.5498C85.8193 56.5794 85.9377 56.5856 85.9377 56.5856Z" fill="#CC818C"/>
<path d="M77.8396 57.3207C77.8396 57.3207 78.0732 56.3863 76.2044 54.0114C74.3356 51.6365 73.9852 47.7043 73.9852 47.7043C73.9852 47.7043 73.5181 45.6798 73.9852 45.0958C74.4524 44.5118 75.2311 38.0878 75.2311 38.0878L76.5159 34.4671C76.5159 34.4671 82.7841 28.0821 80.1756 27.3035C78.4033 26.774 76.2823 29.5008 75.1159 31.3011C74.5397 32.1857 74.1674 33.1873 74.0257 34.2335L70.4813 43.9278C70.4813 43.9278 70.1309 45.0958 70.4813 47.1203C70.8317 49.1448 71.6103 52.7266 71.6103 52.7266L73.5959 57.7536C73.5959 57.7536 74.6409 60.8838 74.0989 61.2653L75.309 59.476L77.8396 57.3207Z" fill="#CC818C"/>
<path d="M108.869 66.2799C108.869 66.2799 108.168 68.1487 106.728 67.9929C105.287 67.8372 98.3572 65.8516 98.3572 65.8516C98.3572 65.8516 95.4761 64.4111 94.3471 64.4501C93.218 64.489 88.04 62.0751 88.04 62.0751C88.04 62.0751 87.6756 62.5548 87.2691 63.0594C86.8268 63.6122 86.3347 64.1962 86.2101 64.2165C85.9765 64.2554 82.3558 64.7615 82.3558 64.7615L79.903 63.6325L79.6694 62.6155L79.5588 62.1483L80.1023 61.5425L80.8171 60.7468L82.158 59.2175L82.1658 59.2081L83.9551 57.2631L83.9676 57.2506L85.1138 56.7834L85.3349 56.6931H85.3707C85.5078 56.6697 86.0341 56.6214 86.7396 57.0201C87.2309 57.2983 87.7764 57.4672 88.339 57.5153C89.4587 57.5952 90.5189 58.0494 91.3493 58.8048L97.1113 61.8369L106.183 65.1072C106.183 65.1072 106.961 60.63 108.285 61.6033C109.609 62.5766 108.869 66.2799 108.869 66.2799Z" fill="#CC818C"/>
<path opacity="0.1" d="M87.2692 63.0594C86.8269 63.6122 86.3348 64.1962 86.2102 64.2165C85.9766 64.2554 82.3559 64.7615 82.3559 64.7615L79.9031 63.6325L79.6695 62.6155L79.5589 62.8881L78.391 64.1339L77.645 65.7302L75.9008 66.7424L74.0242 65.7691L73.1677 64.5232L73.3624 62.7386C73.4605 62.5268 73.7284 61.9506 73.9729 61.4647C74.0884 61.197 74.2336 60.9431 74.4058 60.7078C74.5615 60.605 74.725 59.5009 74.725 59.5009C75.4321 57.4624 77.8007 57.1494 77.8007 57.1494L78.1792 57.5044L78.3442 57.6757C78.2773 57.6648 78.3567 57.52 78.271 57.5434C78.134 57.5823 78.0733 57.7894 77.8973 57.9031C76.9395 58.526 75.443 59.979 74.8512 60.6689C74.7079 60.8355 74.56 60.999 74.4089 61.1579C73.5539 62.0627 73.7112 63.2618 73.7112 63.2618C73.4979 64.1962 75.3853 64.897 75.3853 64.897C75.9117 64.0218 79.4733 61.608 79.4733 61.608L81.8716 58.9216C82.6066 57.6415 84.0518 56.7959 84.8585 56.4003C85.2151 56.2259 85.4487 56.1387 85.4487 56.1387L86.3457 56.5218C86.1089 56.4583 85.8583 56.4692 85.6278 56.5529C85.4954 56.5939 85.3667 56.646 85.2431 56.7086C85.1964 56.732 85.1497 56.7569 85.1061 56.7834C84.8608 56.9258 84.6302 57.0922 84.4178 57.2802L82.4026 59.4807C80.8624 61.161 82.0226 63.8785 84.301 63.9175H84.3212C85.7134 64.2383 86.7117 63.5935 87.2692 63.0594Z" fill="black"/>
<path opacity="0.1" d="M83.3478 112.473C83.3478 112.473 83.0597 113.364 82.6626 114.568C81.1396 114.681 78.6245 114.093 77.6543 113.843L77.8599 112.805L83.3478 112.473Z" fill="black"/>
<path d="M78.3458 57.6757L77.8475 57.1649C77.8475 57.1649 76.0488 57.411 74.9322 59.3327C74.9322 59.3327 74.4105 60.7732 74.2501 60.876C74.0897 60.9788 73.1677 62.9924 73.1677 62.9924C73.1677 62.9924 72.0652 66.2487 72.9855 68.2483C73.9059 70.2479 73.9464 71.1683 73.9464 71.1683L74.6347 74.1272L74.9197 76.7217L77.3927 82.8341L79.6695 86.078C79.6695 86.078 79.4562 88.4716 78.989 88.8033C78.5218 89.135 78.7351 90.8465 78.7351 90.8465L78.4439 95.344C78.4439 95.344 77.5282 96.6865 77.4706 98.8667C77.413 101.047 77.0813 101.67 77.0813 101.67C77.0813 101.67 76.9255 103.5 77.3538 104.338C77.7821 105.175 76.6717 106.051 76.6717 106.051L77.6263 109.301L77.2557 113.428C77.2557 113.428 81.6551 114.655 83.2903 114.149C84.9255 113.642 85.782 113.993 85.782 113.993L88.7019 102.171L89.7142 92.8866C89.7142 92.8866 89.7734 86.3069 90.6486 84.3011C91.3992 82.5881 90.415 76.485 87.0341 75.3326C86.3286 75.0927 85.9704 74.2923 85.3677 73.8531C84.8289 73.4622 83.949 72.5387 84.3804 70.8693C84.9846 68.5333 86.503 64.855 86.503 64.855L87.6274 62.6155C87.6274 62.6155 86.4049 64.5933 84.167 64.0872H84.1468C81.8684 64.0467 80.7082 61.3292 82.2484 59.6504L84.2636 57.4484C84.2636 57.4484 85.374 56.4252 86.1915 56.6837L85.2961 56.3006C85.2961 56.3006 82.7748 57.235 81.7143 59.0835L79.316 61.7699C79.316 61.7699 75.7575 64.1728 75.2312 65.0543C75.2312 65.0543 73.3437 64.3535 73.5571 63.4191C73.5571 63.4191 73.4013 62.2184 74.2547 61.3136C74.4105 61.1579 74.5537 60.9928 74.697 60.8262C75.4648 59.9292 77.5874 57.5496 78.3458 57.6757Z" fill="#565987"/>
<path opacity="0.1" d="M78.6386 73.7161C78.6386 73.7161 78.0732 77.8243 78.5015 78.6606L78.6386 73.7161Z" fill="black"/>
<path opacity="0.1" d="M79.0076 75.3123L79.6118 77.6685C79.6118 77.6685 79.8252 76.228 79.0076 75.3123Z" fill="black"/>
<path opacity="0.1" d="M75.4258 74.7626C75.4258 74.7626 76.6327 80.7582 77.9564 82.5694Z" fill="black"/>
<path opacity="0.1" d="M83.9334 81.9901C83.9334 81.9901 81.8699 83.9367 81.071 83.795C81.071 83.795 84.2449 83.9321 85.2369 82.2579C85.2369 82.2626 84.5952 81.7954 83.9334 81.9901Z" fill="black"/>
<path opacity="0.1" d="M86.7942 81.8344C86.7942 81.8344 84.1468 83.7607 83.6219 83.9367C83.6219 83.9367 86.4827 83.1191 86.7942 81.8344Z" fill="black"/>
<path opacity="0.1" d="M77.8396 67.5258C77.8396 67.5258 76.5159 69.2201 75.854 69.0255C75.854 69.0255 77.4705 69.0831 77.8396 67.5258Z" fill="black"/>
<path opacity="0.1" d="M79.3394 69.706C79.3394 69.706 82.2204 65.794 83.583 65.9498C83.583 65.9498 80.3127 68.7918 79.3394 69.706Z" fill="black"/>
<path opacity="0.1" d="M83.3291 68.2826C83.3291 68.2826 81.4993 69.1999 81.6939 69.4677C81.8886 69.7356 83.3291 68.2826 83.3291 68.2826Z" fill="black"/>
<path opacity="0.1" d="M84.6529 98.3216C84.6529 98.3216 78.5404 101.885 77.9767 102.059C77.9767 102.059 79.0279 102.858 80.0199 102.469C81.0119 102.079 84.6529 98.3216 84.6529 98.3216Z" fill="black"/>
<path opacity="0.1" d="M79.5339 105.739C79.5339 105.739 77.0812 105.485 77.1777 106.284C77.2743 107.083 79.5339 105.739 79.5339 105.739Z" fill="black"/>
<path opacity="0.1" d="M82.5893 50.3128C82.5893 50.3128 82.5395 51.3094 82.5395 52.8636C81.9628 53.3362 81.2824 53.6653 80.5539 53.8239C79.8254 53.9826 79.0697 53.9662 78.3488 53.7762C78.122 52.8454 77.8215 51.9341 77.4502 51.0509L82.5893 50.3128Z" fill="black"/>
<path d="M79.5527 53.6283C82.1544 53.6283 84.2635 51.5192 84.2635 48.9174C84.2635 46.3157 82.1544 44.2065 79.5527 44.2065C76.9509 44.2065 74.8418 46.3157 74.8418 48.9174C74.8418 51.5192 76.9509 53.6283 79.5527 53.6283Z" fill="#CC818C"/>
<path opacity="0.1" d="M80.7876 51.7922C80.92 53.7186 81.3249 55.9222 82.9974 56.8909C84.2059 57.5901 85.729 57.4063 87.0667 57.0077C88.4044 56.609 89.7141 56.0141 91.1064 55.9471C92.1762 55.8957 93.2337 56.1589 94.3004 56.2259C95.3672 56.2929 96.5352 56.1262 97.2967 55.3756C98.3868 54.3073 98.1875 52.3653 97.155 51.2425C96.1225 50.1197 94.5075 49.7116 92.9783 49.7537C91.1095 49.8051 89.0227 50.3766 87.5448 49.2429C86.5528 48.4798 86.1775 47.1561 85.3427 46.2233C83.9489 44.6659 77.7851 42.4172 76.4801 44.9556C75.868 46.1438 78.6494 46.9926 79.2941 47.8522C80.3126 49.2086 80.6661 50.0138 80.7876 51.7922Z" fill="black"/>
<path d="M80.9325 51.6256C81.0664 53.5535 81.4698 55.7571 83.1423 56.7242C84.3508 57.4235 85.8738 57.2397 87.2116 56.8426C88.5493 56.4455 89.859 55.849 91.2528 55.7821C92.3211 55.7307 93.3785 55.9923 94.4469 56.0608C95.5152 56.1293 96.6801 55.9611 97.4416 55.2105C98.5317 54.1406 98.3324 52.2002 97.2999 51.0774C96.2674 49.9546 94.6524 49.5466 93.1247 49.5886C91.2559 49.6384 89.1676 50.2115 87.6897 49.0763C86.6977 48.3132 86.3224 46.991 85.4876 46.0566C84.0938 44.4993 77.93 42.2521 76.625 44.7905C76.0129 45.9772 78.7943 46.8259 79.4406 47.6871C80.4575 49.042 80.811 49.8456 80.9325 51.6256Z" fill="#663D5B"/>
<path opacity="0.1" d="M75.267 64.8954C75.3392 64.2808 75.5418 63.6887 75.8611 63.1586C76.1804 62.6285 76.6091 62.1726 77.1186 61.8213" fill="black"/>
<path opacity="0.1" d="M92.93 89.2892C92.9155 89.4419 92.8782 89.5915 92.8194 89.733C92.6153 90.3445 92.3697 90.9413 92.0844 91.5193C92.5002 91.4835 92.8428 91.1564 93.0187 90.7796C93.1725 90.3918 93.2573 89.9802 93.2695 89.5633C93.2848 89.4331 93.2884 89.3017 93.2804 89.1709C93.2695 89.0494 93.1916 88.5853 92.9907 88.6678C92.8287 88.7364 92.9331 89.1662 92.93 89.2892Z" fill="black"/>
<path opacity="0.1" d="M97.7219 54.7231C96.9588 55.4737 95.7939 55.6419 94.7256 55.5734C93.6573 55.5049 92.5952 55.2432 91.5316 55.2962C90.13 55.3631 88.8312 55.958 87.4919 56.3567C86.1526 56.7554 84.6311 56.9391 83.4211 56.2399C81.7501 55.2713 81.3452 53.0677 81.2128 51.1413C81.0913 49.3628 80.7363 48.5577 79.7193 47.2013C79.1042 46.3805 76.5502 45.5707 76.843 44.4682C76.7584 44.5676 76.6852 44.6763 76.625 44.7921C76.0129 45.9788 78.7943 46.8275 79.4406 47.6887C80.4575 49.0436 80.811 49.8502 80.9325 51.6271C81.0664 53.5551 81.4698 55.7587 83.1423 56.7258C84.3508 57.425 85.8738 57.2413 87.2116 56.8441C88.5493 56.447 89.859 55.8506 91.2528 55.7836C92.3211 55.7322 93.3785 55.9939 94.4469 56.0624C95.5152 56.1309 96.6801 55.9627 97.4416 55.2121C97.6579 54.9975 97.8298 54.7424 97.9477 54.4615C97.8793 54.5543 97.8038 54.6418 97.7219 54.7231V54.7231Z" fill="black"/>
<path d="M74.929 68.8837L74.3574 70.1296L76.1748 69.7667L74.929 68.8837Z" fill="#CC818C"/>
<path opacity="0.1" d="M74.929 68.8837L74.4586 70.1296H74.3574L74.929 68.8837Z" fill="black"/>
<path opacity="0.1" d="M119.901 125.431C123.427 125.431 126.286 125.039 126.286 124.555C126.286 124.07 123.427 123.678 119.901 123.678C116.375 123.678 113.516 124.07 113.516 124.555C113.516 125.039 116.375 125.431 119.901 125.431Z" fill="#6C63FF"/>
<path opacity="0.1" d="M144.359 127.911C147.885 127.911 150.744 127.518 150.744 127.034C150.744 126.55 147.885 126.157 144.359 126.157C140.832 126.157 137.974 126.55 137.974 127.034C137.974 127.518 140.832 127.911 144.359 127.911Z" fill="#6C63FF"/>
<path opacity="0.1" d="M173.167 124.555C176.694 124.555 179.552 124.162 179.552 123.678C179.552 123.194 176.694 122.801 173.167 122.801C169.641 122.801 166.782 123.194 166.782 123.678C166.782 124.162 169.641 124.555 173.167 124.555Z" fill="#6C63FF"/>
<path opacity="0.1" d="M134.569 134.718C137.076 134.718 139.107 134.439 139.107 134.095C139.107 133.751 137.076 133.472 134.569 133.472C132.063 133.472 130.031 133.751 130.031 134.095C130.031 134.439 132.063 134.718 134.569 134.718Z" fill="#6C63FF"/>
<path opacity="0.1" d="M159.954 134.095C162.46 134.095 164.492 133.816 164.492 133.472C164.492 133.128 162.46 132.849 159.954 132.849C157.447 132.849 155.416 133.128 155.416 133.472C155.416 133.816 157.447 134.095 159.954 134.095Z" fill="#6C63FF"/>
<path d="M144.497 126.838C144.497 126.838 135.543 97.4822 145.899 85.7245C153.645 76.9288 162.439 77.9816 166.378 79.0686C167.397 79.3399 168.345 79.8297 169.156 80.5038C169.967 81.178 170.621 82.0204 171.074 82.9727C172.451 85.9441 172.204 90.7593 162.484 96.3921C146.21 105.814 145.198 118.74 145.198 118.74L144.497 126.838Z" fill="#6C63FF"/>
<path d="M164.976 83.2328C164.976 83.2328 138.58 91.4866 144.497 126.838" stroke="#565987" stroke-miterlimit="10"/>
<path d="M149.559 86.1917C149.559 86.1917 153.192 88.6414 152.038 92.3213" stroke="#565987" stroke-miterlimit="10"/>
<path d="M162.329 88.372C162.329 88.372 160.106 86.1107 157.401 87.3581" stroke="#565987" stroke-miterlimit="10"/>
<path d="M151.895 99.7404C151.895 99.7404 147.992 97.7594 146.983 100.24" stroke="#565987" stroke-miterlimit="10"/>
<path d="M142.239 103.867C142.239 103.867 145.169 103.634 145.222 105.035" stroke="#565987" stroke-miterlimit="10"/>
<path d="M144.142 127.071C144.142 127.071 154.629 105.736 157.51 106.203C158.879 106.424 159.51 107.771 159.795 109.123C160.147 110.873 159.944 112.689 159.215 114.318C157.728 117.73 153.731 124.214 144.142 127.071Z" fill="#6C63FF"/>
<path d="M157.425 110.252C157.425 110.252 146.417 126.215 144.29 126.915" stroke="#565987" stroke-miterlimit="10"/>
<path d="M158.437 112.744H155.867" stroke="#565987" stroke-miterlimit="10"/>
<path d="M155.36 118.584L151.332 118.757" stroke="#565987" stroke-miterlimit="10"/>
<path d="M152.908 113.912L153.346 116.01" stroke="#565987" stroke-miterlimit="10"/>
<path d="M148.626 120.297L148.704 122.203" stroke="#565987" stroke-miterlimit="10"/>
<path d="M144.454 127.071C144.454 127.071 133.967 105.736 131.086 106.203C129.717 106.424 129.086 107.771 128.801 109.123C128.444 110.871 128.641 112.687 129.365 114.318C130.852 117.73 134.85 124.214 144.454 127.071Z" fill="#6C63FF"/>
<path d="M131.156 110.252C131.156 110.252 142.163 126.215 144.29 126.915" stroke="#565987" stroke-miterlimit="10"/>
<path d="M130.142 112.744H132.712" stroke="#565987" stroke-miterlimit="10"/>
<path d="M133.221 118.584L137.248 118.757" stroke="#565987" stroke-miterlimit="10"/>
<path d="M135.67 113.912L135.234 116.01" stroke="#565987" stroke-miterlimit="10"/>
<path d="M139.953 120.297L139.875 122.203" stroke="#565987" stroke-miterlimit="10"/>
<path d="M162.453 132.053C162.739 131.821 162.948 131.507 163.051 131.153C163.128 130.795 162.975 130.366 162.634 130.236C162.251 130.089 161.841 130.354 161.531 130.622C161.221 130.89 160.865 131.197 160.458 131.139C160.667 130.949 160.823 130.709 160.911 130.441C160.999 130.174 161.017 129.888 160.961 129.611C160.945 129.496 160.896 129.388 160.821 129.3C160.609 129.072 160.223 129.17 159.968 129.35C159.158 129.92 158.932 131.019 158.929 132.009C158.846 131.651 158.915 131.279 158.913 130.919C158.912 130.56 158.811 130.141 158.502 129.951C158.312 129.845 158.097 129.792 157.879 129.795C157.515 129.782 157.11 129.818 156.861 130.085C156.549 130.415 156.632 130.971 156.901 131.33C157.171 131.69 157.579 131.922 157.954 132.175C158.257 132.353 158.515 132.599 158.708 132.892C158.731 132.933 158.75 132.976 158.764 133.02H161.045C161.556 132.763 162.03 132.437 162.453 132.053V132.053Z" fill="#6C63FF"/>
<path d="M122.496 123.461C122.782 123.228 122.99 122.914 123.092 122.56C123.17 122.201 123.017 121.781 122.675 121.642C122.292 121.496 121.884 121.761 121.572 122.03C121.261 122.3 120.906 122.603 120.501 122.547C120.709 122.357 120.865 122.115 120.953 121.847C121.04 121.578 121.057 121.292 121.001 121.015C120.983 120.9 120.935 120.792 120.86 120.703C120.647 120.476 120.262 120.573 120.007 120.752C119.197 121.322 118.971 122.421 118.967 123.412C118.886 123.055 118.954 122.683 118.953 122.321C118.951 121.96 118.85 121.543 118.54 121.351C118.349 121.248 118.134 121.198 117.917 121.205C117.554 121.191 117.148 121.227 116.9 121.493C116.589 121.825 116.671 122.379 116.939 122.739C117.207 123.098 117.617 123.331 117.993 123.583C118.295 123.763 118.552 124.008 118.746 124.301C118.769 124.342 118.788 124.385 118.802 124.43H121.085C121.596 124.172 122.071 123.846 122.496 123.461Z" fill="#6C63FF"/>
<path d="M135.809 132.053C136.095 131.821 136.304 131.507 136.407 131.153C136.483 130.795 136.331 130.366 135.99 130.236C135.607 130.089 135.197 130.354 134.887 130.622C134.577 130.89 134.221 131.197 133.814 131.139C134.023 130.95 134.18 130.709 134.268 130.442C134.356 130.174 134.374 129.888 134.319 129.611C134.302 129.496 134.253 129.388 134.179 129.3C133.967 129.072 133.581 129.17 133.325 129.35C132.515 129.92 132.29 131.019 132.286 132.009C132.204 131.651 132.272 131.279 132.271 130.919C132.269 130.56 132.168 130.141 131.86 129.951C131.669 129.845 131.454 129.792 131.237 129.795C130.872 129.782 130.467 129.818 130.218 130.085C129.907 130.415 129.989 130.971 130.259 131.33C130.528 131.69 130.936 131.922 131.312 132.175C131.614 132.353 131.872 132.599 132.065 132.892C132.088 132.933 132.107 132.976 132.121 133.02H134.403C134.913 132.763 135.386 132.437 135.809 132.053V132.053Z" fill="#6C63FF"/>
<path d="M173.575 114.684C173.575 114.684 174.432 115.802 173.181 117.487C171.931 119.173 170.9 120.602 171.313 121.655C171.313 121.655 173.2 118.518 174.739 118.475C176.277 118.431 175.271 116.57 173.575 114.684Z" fill="#6C63FF"/>
<path opacity="0.1" d="M173.575 114.684C173.65 114.792 173.709 114.91 173.75 115.035C175.25 116.794 176.047 118.437 174.606 118.479C173.266 118.517 171.657 120.917 171.271 121.522C171.283 121.569 171.298 121.615 171.316 121.66C171.316 121.66 173.203 118.523 174.742 118.479C176.281 118.436 175.271 116.57 173.575 114.684Z" fill="black"/>
<path d="M175.172 116.109C175.172 116.503 175.128 116.823 175.074 116.823C175.019 116.823 174.977 116.499 174.977 116.109C174.977 115.72 175.032 115.902 175.086 115.902C175.141 115.902 175.172 115.72 175.172 116.109Z" fill="#FFD037"/>
<path d="M175.718 116.58C175.373 116.768 175.071 116.882 175.046 116.835C175.021 116.788 175.278 116.595 175.623 116.407C175.969 116.218 175.834 116.355 175.859 116.407C175.883 116.458 176.067 116.391 175.718 116.58Z" fill="#FFD037"/>
<path d="M169.059 114.684C169.059 114.684 168.203 115.802 169.453 117.487C170.704 119.173 171.735 120.602 171.322 121.655C171.322 121.655 169.436 118.518 167.896 118.475C166.356 118.431 167.374 116.57 169.059 114.684Z" fill="#6C63FF"/>
<path opacity="0.1" d="M169.059 114.684C168.984 114.792 168.925 114.91 168.883 115.035C167.385 116.794 166.588 118.437 168.027 118.479C169.369 118.517 170.986 120.917 171.364 121.522C171.352 121.569 171.336 121.615 171.317 121.66C171.317 121.66 169.431 118.523 167.891 118.479C166.351 118.436 167.374 116.57 169.059 114.684Z" fill="black"/>
<path d="M167.472 116.109C167.472 116.503 167.517 116.823 167.572 116.823C167.626 116.823 167.67 116.503 167.67 116.109C167.67 115.715 167.616 115.902 167.561 115.902C167.507 115.902 167.472 115.72 167.472 116.109Z" fill="#FFD037"/>
<path d="M166.927 116.58C167.273 116.768 167.574 116.882 167.6 116.835C167.627 116.788 167.368 116.595 167.022 116.407C166.677 116.218 166.812 116.355 166.786 116.407C166.759 116.458 166.582 116.391 166.927 116.58Z" fill="#FFD037"/>
<path d="M167.745 121.513C167.745 121.513 170.137 121.44 170.86 120.926C171.582 120.412 174.539 119.8 174.719 120.624C174.898 121.448 178.313 124.718 175.612 124.74C172.912 124.762 169.338 124.319 168.619 123.88C167.899 123.441 167.745 121.513 167.745 121.513Z" fill="#A8A8A8"/>
<path opacity="0.2" d="M175.659 124.453C172.959 124.475 169.383 124.033 168.664 123.594C168.117 123.26 167.897 122.063 167.826 121.51H167.745C167.745 121.51 167.901 123.44 168.617 123.877C169.333 124.315 172.91 124.759 175.611 124.737C176.39 124.737 176.659 124.453 176.645 124.042C176.534 124.293 176.238 124.449 175.659 124.453Z" fill="black"/>
<defs>
<linearGradient id="paint0_linear" x1="97.3511" y1="132.805" x2="97.3511" y2="26.1012" gradientUnits="userSpaceOnUse">
<stop stop-color="#808080" stop-opacity="0.25"/>
<stop offset="0.54" stop-color="#808080" stop-opacity="0.12"/>
<stop offset="1" stop-color="#808080" stop-opacity="0.1"/>
</linearGradient>
</defs>
</svg>
