<svg width="184" height="115" viewBox="0 0 184 115" fill="none" xmlns="http://www.w3.org/2000/svg">
<rect width="184" height="115" fill="#C1DEE2"/>
<path opacity="0.1" d="M171.396 75.9932C169.78 79.882 166.398 83.3945 162.768 86.721C159.577 89.6457 156.164 92.472 152.528 95.1998C151.52 95.957 150.497 96.7048 149.457 97.4431L148.735 97.9528C148.094 98.4061 147.443 98.8553 146.781 99.3001L146.701 99.3541C146.059 99.7914 145.411 100.224 144.757 100.653C142.618 102.059 140.358 103.454 137.859 104.61C137.007 105.005 136.129 105.372 135.219 105.702C134.727 105.881 134.225 106.048 133.712 106.204C132.872 106.46 132.009 106.683 131.108 106.866C130.958 106.897 130.806 106.927 130.654 106.956C129.731 107.129 128.798 107.255 127.854 107.342C124.396 107.658 120.824 107.427 117.36 106.885C115.628 106.613 113.924 106.264 112.275 105.867C112.072 105.818 111.871 105.769 111.668 105.725C106.052 104.319 100.78 102.411 95.1251 101.069C93.1762 100.606 91.1894 100.214 89.1648 99.8908C88.1771 99.7336 87.1838 99.5917 86.1847 99.4648C83.8333 99.1723 81.452 98.9764 79.0608 98.877C75.8366 98.7351 72.5074 98.7961 69.4393 99.3598C69.0306 99.4345 68.6271 99.5188 68.2288 99.6125C67.7236 99.7308 67.2278 99.8657 66.7415 100.017C65.4306 100.441 64.1547 100.966 62.9256 101.589C62.6829 101.708 62.4431 101.829 62.2032 101.951C61.4511 102.334 60.7089 102.726 59.9554 103.107C58.5992 103.817 57.1878 104.416 55.7349 104.898C54.9392 105.15 54.13 105.356 53.3111 105.517C51.1441 105.952 48.8381 106.124 46.5221 106.135C45.4053 106.135 44.287 106.111 43.1815 106.053H43.1475C42.77 106.033 42.3911 106.01 42.0122 105.982C40.2865 105.864 38.5666 105.682 36.8722 105.434C31.0666 104.582 25.5605 102.972 21.1314 100.515C15.1158 97.1818 11.2956 92.2112 11.8689 87.2449C12.2805 83.6671 14.8363 80.3448 17.2615 77.0921C21.7729 71.0354 25.999 64.841 28.2227 58.3115C30.0264 53.0115 30.5642 47.4076 34.7151 42.6443C36.0448 41.1195 37.7449 39.7281 39.7246 38.5085C41.2043 37.6022 42.7553 36.8178 44.3622 36.1631C46.1784 35.4189 48.0467 34.8091 49.9521 34.3387C51.6035 33.9288 53.277 33.6141 54.9644 33.396C55.8811 33.2767 56.8092 33.1844 57.743 33.1219C58.462 33.0718 59.1843 33.0401 59.91 33.0268H60.0221C60.4658 33.0183 60.9095 33.0183 61.3532 33.0268C64.5886 33.0769 67.815 33.3803 71.0031 33.9341C72.9984 34.2677 74.9766 34.6766 76.9137 35.1267C78.0698 35.3945 79.2155 35.6752 80.3508 35.9686C80.697 36.058 81.0433 36.1489 81.3853 36.2412C89.4629 38.4063 96.5697 41.3963 104.352 43.8497C104.392 43.8625 104.43 43.8753 104.47 43.8852C106.067 44.3766 107.689 44.7842 109.329 45.1062C110.534 45.3476 111.766 45.5563 113.019 45.7394C114.937 46.0234 116.897 46.2477 118.871 46.4408L119.307 46.4834C122.203 46.7673 125.125 46.9789 127.963 47.2259C128.971 47.3139 129.97 47.4048 130.955 47.5099C131.579 47.5723 132.198 47.6386 132.811 47.7086C133.251 47.7597 133.692 47.8109 134.133 47.8648C134.575 47.9188 135.042 47.9755 135.496 48.0338C135.791 48.0707 136.085 48.109 136.38 48.1502C138.168 48.3873 139.952 48.6528 141.716 48.9566C142.789 49.1412 143.856 49.3399 144.91 49.5543C145.674 49.7096 146.431 49.8733 147.181 50.0456C147.737 50.1715 148.289 50.304 148.835 50.4431C153.279 51.5605 157.437 53.0257 161.02 55.0034C170.325 60.1273 174.489 68.5565 171.396 75.9932Z" fill="#6C63FF"/>
<path opacity="0.1" d="M46.6499 19.1074C48.3451 19.1074 49.7194 17.7325 49.7194 16.0365C49.7194 14.3404 48.3451 12.9655 46.6499 12.9655C44.9546 12.9655 43.5803 14.3404 43.5803 16.0365C43.5803 17.7325 44.9546 19.1074 46.6499 19.1074Z" fill="#6C63FF"/>
<path opacity="0.1" d="M109.39 12.4146C111.085 12.4146 112.46 11.0397 112.46 9.34368C112.46 7.64763 111.085 6.27272 109.39 6.27272C107.695 6.27272 106.32 7.64763 106.32 9.34368C106.32 11.0397 107.695 12.4146 109.39 12.4146Z" fill="#6C63FF"/>
<path opacity="0.1" d="M146.592 19.292C148.287 19.292 149.661 17.9171 149.661 16.221C149.661 14.525 148.287 13.1501 146.592 13.1501C144.897 13.1501 143.522 14.525 143.522 16.221C143.522 17.9171 144.897 19.292 146.592 19.292Z" fill="#6C63FF"/>
<path opacity="0.1" d="M16.4598 28.6128C19.3008 28.6128 21.604 26.3085 21.604 23.4661C21.604 20.6237 19.3008 18.3194 16.4598 18.3194C13.6187 18.3194 11.3155 20.6237 11.3155 23.4661C11.3155 26.3085 13.6187 28.6128 16.4598 28.6128Z" fill="#6C63FF"/>
<path opacity="0.1" d="M21.3911 54.0266C24.2322 54.0266 26.5354 51.7224 26.5354 48.8799C26.5354 46.0375 24.2322 43.7333 21.3911 43.7333C18.5501 43.7333 16.2469 46.0375 16.2469 48.8799C16.2469 51.7224 18.5501 54.0266 21.3911 54.0266Z" fill="#6C63FF"/>
<path opacity="0.1" d="M159.459 44.6717C162.3 44.6717 164.603 42.3675 164.603 39.5251C164.603 36.6827 162.3 34.3784 159.459 34.3784C156.618 34.3784 154.315 36.6827 154.315 39.5251C154.315 42.3675 156.618 44.6717 159.459 44.6717Z" fill="#6C63FF"/>
<path d="M61.6015 40.2548C61.627 40.687 61.6018 41.1206 61.5263 41.5468C61.2425 42.8658 60.0419 43.7716 58.8797 44.4588C57.7174 45.1459 56.4402 45.7962 55.7491 46.9561C54.9161 48.3575 55.1815 50.2415 56.1593 51.5505C57.137 52.8595 58.6867 53.639 60.2818 53.9641C63.1909 54.5647 66.3768 53.7213 68.558 51.7053C70.7391 49.6892 71.8333 46.5387 71.2983 43.6126C70.1147 43.7787 69.0603 42.7338 68.6772 41.6008C68.294 40.4678 68.3735 39.2397 68.2245 38.0514C68.2136 37.8504 68.1532 37.6553 68.0485 37.4835C67.8825 37.2535 67.5887 37.1598 67.3148 37.0845C65.9468 36.7083 63.645 35.8848 62.2273 36.2C60.9502 36.4925 61.5802 39.1815 61.6015 40.2548Z" fill="#BE6F72"/>
<path opacity="0.1" d="M61.6015 40.2548C61.627 40.687 61.6018 41.1206 61.5263 41.5468C61.2425 42.8658 60.0419 43.7716 58.8797 44.4588C57.7174 45.1459 56.4402 45.7962 55.7491 46.9561C54.9161 48.3575 55.1815 50.2415 56.1593 51.5505C57.137 52.8595 58.6867 53.639 60.2818 53.9641C63.1909 54.5647 66.3768 53.7213 68.558 51.7053C70.7391 49.6892 71.8333 46.5387 71.2983 43.6126C70.1147 43.7787 69.0603 42.7338 68.6772 41.6008C68.294 40.4678 68.3735 39.2397 68.2245 38.0514C68.2136 37.8504 68.1532 37.6553 68.0485 37.4835C67.8825 37.2535 67.5887 37.1598 67.3148 37.0845C65.9468 36.7083 63.645 35.8848 62.2273 36.2C60.9502 36.4925 61.5802 39.1815 61.6015 40.2548Z" fill="black"/>
<path d="M59.9483 103.109C58.5921 103.82 57.1807 104.419 55.7278 104.901C54.9321 105.153 54.1229 105.359 53.304 105.52C53.2461 104.428 53.3055 103.334 53.4814 102.255C53.5921 101.634 53.7553 101.019 53.7979 100.39C53.8581 99.4826 53.664 98.576 53.2373 97.7724C54.8182 97.5566 56.3196 97.2045 57.9076 97.3082L58.0083 97.3153C58.1972 97.3201 58.384 97.3551 58.5618 97.4189C58.8061 97.5372 59.0136 97.7198 59.1621 97.9471C59.2438 98.0586 59.3192 98.1748 59.3877 98.2949C59.8362 99.0701 60.0064 99.9646 60.0419 100.886C60.0586 101.628 60.0273 102.371 59.9483 103.109V103.109Z" fill="#BE6F72"/>
<path d="M68.2231 99.6139C67.7179 99.7322 67.2221 99.8671 66.7359 100.019C65.4249 100.442 64.1491 100.968 62.9199 101.59C62.84 101.204 62.801 100.81 62.8035 100.415C63.5278 99.9149 64.3452 99.566 65.207 99.3887C66.0688 99.2114 66.9574 99.2093 67.8201 99.3825C67.9354 99.3965 68.045 99.4405 68.1379 99.5103C68.1716 99.5401 68.2004 99.5751 68.2231 99.6139V99.6139Z" fill="#BE6F72"/>
<path d="M70.6626 92.4469C70.5661 93.3754 70.4241 94.3068 70.0949 95.18C69.7387 96.117 69.1597 97.0257 69.2335 98.0266C69.2662 98.461 69.4137 98.9324 69.435 99.3626C69.0263 99.4374 68.6228 99.5216 68.2245 99.6153C67.7193 99.7336 67.2236 99.8685 66.7373 100.02C65.4264 100.444 64.1505 100.969 62.9213 101.592C62.6787 101.711 62.4388 101.832 62.199 101.954C62.0997 101.941 62.0017 101.925 61.9024 101.907C61.1929 101.778 60.4464 101.46 60.0448 100.892C59.9529 100.761 59.8807 100.617 59.8305 100.466C59.5992 99.7743 59.8404 98.9125 59.3594 98.3645L59.3367 98.3844L59.3196 98.3957C59.0561 98.6346 58.7667 98.8432 58.4568 99.0176V99.0176C57.7514 99.417 56.97 99.6636 56.1633 99.7413C55.3565 99.8191 54.5424 99.7264 53.7738 99.4691C53.4692 99.3654 53.1751 99.2332 52.8953 99.0744C52.2454 98.7038 51.6181 98.0806 51.6692 97.3366C51.6976 96.922 51.9346 96.5245 51.8707 96.1142C51.8239 95.8203 51.6309 95.5761 51.4862 95.3163C50.5368 93.6125 51.6692 91.4218 51.0732 89.5705C51.059 89.5265 51.0434 89.4824 51.0278 89.4398C50.9838 89.3192 50.9341 89.2027 50.8859 89.0863C50.7638 88.8151 50.6276 88.5482 50.5198 88.27C50.4299 88.036 50.3588 87.7953 50.3069 87.5501C50.1729 86.8382 50.1253 86.1126 50.165 85.3892C50.165 83.4825 50.5056 81.5303 50.9909 79.6931C51.0775 79.3666 51.174 78.9052 51.3017 78.4026C51.4262 77.8728 51.5942 77.3543 51.804 76.8522C52.0879 76.1991 52.4739 75.678 53.0018 75.5545C53.7965 75.3685 55.0112 75.7618 55.8173 75.8584L59.0032 76.2388L65.3735 77.0013C66.4734 77.1333 67.6285 77.2852 68.5353 77.9042C68.5949 77.9454 68.6531 77.988 68.7113 78.0334C68.9508 78.2222 69.1654 78.4407 69.3499 78.6837C69.4152 78.7675 69.4776 78.8555 69.5372 78.9449C69.7439 79.2615 69.9197 79.5971 70.0623 79.9473C70.8527 81.8469 70.8712 83.9666 70.8768 86.0239C70.8768 88.1706 70.8839 90.3158 70.6626 92.4469Z" fill="#3F3D56"/>
<path opacity="0.1" d="M58.4497 99.0261C58.2581 98.2878 57.8536 97.2187 57.794 96.9277C57.5941 95.9513 57.4491 94.9644 57.3598 93.9717C57.2023 92.2027 56.9185 89.7124 57.5429 88.03C58.129 88.3423 58.6441 89.2269 58.9151 89.8303C59.8972 92.0181 58.7917 94.7043 59.7141 96.9177C59.7831 97.0503 59.8259 97.1949 59.8404 97.3437C59.8244 97.5325 59.7566 97.7133 59.6446 97.8661L59.3338 98.3829L58.4497 99.0261Z" fill="black"/>
<path d="M78.8876 31.4821C79.9321 29.7784 81.3626 28.1031 81.2732 26.1111C81.2405 25.4012 81.0078 24.707 80.8304 24.0113C80.3221 21.9979 80.2885 19.8938 80.7325 17.8651C82.4873 17.5831 84.2835 17.9856 85.7504 18.9896C86.2145 19.3105 86.6544 19.7094 86.8588 20.2361C87.0475 20.7217 87.0163 21.2626 86.9822 21.7823C86.9042 22.9763 86.7977 24.2498 86.0626 25.1897C85.8342 25.4836 85.5532 25.7321 85.3304 26.0288C85.0054 26.4547 84.8152 26.9744 84.6293 27.4812L82.2169 34.0476C80.9993 37.3571 79.6795 40.8185 76.9974 43.1086C76.9321 43.164 75.0106 40.4337 74.8517 40.1597C74.2088 39.0367 74.4898 38.5625 75.2675 37.6226C76.8016 35.7641 77.6346 33.5223 78.8876 31.4821Z" fill="#BE6F72"/>
<path d="M51.2407 87.4507C51.2325 87.9409 51.1912 88.4299 51.1172 88.9145C51.0917 89.0934 51.0619 89.2709 51.0264 89.4484C50.5425 91.9755 49.3377 94.3792 48.4947 96.8411C47.3836 100.091 46.8954 102.911 46.508 106.138C45.3911 106.138 44.2729 106.114 43.1674 106.055H43.1333C42.7558 106.035 42.3769 106.013 41.998 105.984C42.3401 102.974 41.7142 99.8169 42.3259 96.8042C42.5728 95.5917 42.9943 94.4147 43.2483 93.2079C43.3266 92.8526 43.3858 92.4934 43.4257 92.1317C43.4611 91.7881 43.4796 91.4318 43.6343 91.1223C43.6484 91.0924 43.6645 91.0634 43.6825 91.0357C43.8184 90.8214 43.987 90.6298 44.182 90.4677C45.9111 88.9508 48.0261 87.9419 50.2927 87.553C50.6149 87.509 50.9285 87.472 51.2407 87.4507Z" fill="#FBBEBE"/>
<path opacity="0.1" d="M51.2407 87.4507C51.2325 87.9409 51.1912 88.4299 51.1172 88.9145C51.0917 89.0934 51.0619 89.2709 51.0264 89.4484C50.5425 91.9755 49.3377 94.3792 48.4947 96.8411C47.3836 100.091 46.8954 102.911 46.508 106.138C45.3911 106.138 44.2729 106.114 43.1674 106.055H43.1333C42.7558 106.035 42.3769 106.013 41.998 105.984C42.3401 102.974 41.7142 99.8169 42.3259 96.8042C42.5728 95.5917 42.9943 94.4147 43.2483 93.2079C43.3266 92.8526 43.3858 92.4934 43.4257 92.1317C43.4611 91.7881 43.4796 91.4318 43.6343 91.1223C43.6484 91.0924 43.6645 91.0634 43.6825 91.0357C43.8184 90.8214 43.987 90.6298 44.182 90.4677C45.9111 88.9508 48.0261 87.9419 50.2927 87.553C50.6149 87.509 50.9285 87.472 51.2407 87.4507Z" fill="black"/>
<path d="M44.0457 93.9206C44.0228 94.7096 43.9579 95.4968 43.8513 96.2789C43.4724 99.4748 43.4015 102.81 43.1418 106.054C42.7643 106.034 42.3854 106.011 42.0065 105.983C40.2808 105.865 38.5609 105.683 36.8665 105.435C36.997 104.704 37.1285 103.974 37.261 103.243C37.4228 102.347 37.5845 101.443 37.5377 100.534C37.4937 99.6749 37.2638 98.8387 37.0808 97.9968C36.6905 96.1937 36.472 94.2486 35.8291 92.5477C35.4938 91.5937 34.9587 90.7224 34.2596 89.9921C36.919 88.9472 39.4748 88.8875 42.3315 88.9983C42.5343 88.9871 42.7358 89.0365 42.9105 89.1403C43.0458 89.2576 43.1465 89.4098 43.2014 89.5804C43.6306 90.6135 43.9 91.706 44.0003 92.8203C44.0345 93.1861 44.0496 93.5533 44.0457 93.9206V93.9206Z" fill="#FBBEBE"/>
<path d="M65.4671 39.5223C68.5238 39.5223 71.0017 37.0432 71.0017 33.9852C71.0017 30.9271 68.5238 28.4481 65.4671 28.4481C62.4105 28.4481 59.9326 30.9271 59.9326 33.9852C59.9326 37.0432 62.4105 39.5223 65.4671 39.5223Z" fill="#BE6F72"/>
<path d="M66.618 46.9263C67.3276 45.7153 67.9492 44.2032 69.3143 43.8667C70.0849 43.6751 70.8867 43.9363 71.6374 44.1933C71.8549 44.2448 72.0524 44.3594 72.2051 44.5227C72.316 44.6987 72.3754 44.9023 72.3768 45.1104C72.6145 47.6135 72.6064 50.1338 72.3527 52.6352C72.1724 54.4057 71.8687 56.1676 71.8148 57.9466C71.7396 60.4127 72.1455 62.8788 72.0121 65.3421C71.9113 67.2091 71.5026 69.0435 71.0967 70.8679L69.3938 78.5062C69.3633 78.7426 69.2686 78.966 69.1199 79.1522C68.9763 79.284 68.8045 79.3811 68.6176 79.4362C66.1526 80.3079 63.5324 80.6528 60.926 80.4486C58.3195 80.2444 55.7849 79.4957 53.4856 78.2507C52.8712 77.9127 52.2581 77.5223 51.8579 76.9459C51.2903 76.1281 51.2378 75.0462 51.4223 74.0666C51.6067 73.087 52.0055 72.1627 52.2737 71.2015C52.6881 69.7108 52.786 68.1547 52.8797 66.61C53.0046 64.5769 53.1294 62.531 52.9123 60.505C52.7633 59.1094 52.4525 57.735 52.2184 56.3507C51.8735 54.2644 51.6734 52.1567 51.6195 50.0427C51.584 48.7805 51.6422 47.3792 52.515 46.4692C52.9407 46.0262 53.5083 45.7593 54.0859 45.5435C55.0552 45.1857 56.1379 44.9756 57.1171 45.3021C58.0963 45.6287 58.8853 46.6566 58.654 47.6632C58.5476 48.1303 58.2453 48.5392 58.1715 49.0134C58.0736 49.6409 58.4057 50.2727 58.8811 50.6972C61.4383 53.0086 65.3423 49.1185 66.618 46.9263Z" fill="#E3E8F4"/>
<path d="M66.821 41.2686C67.5976 40.9824 68.4416 40.933 69.2462 41.1266C69.7585 41.2487 70.312 41.4645 70.7846 41.2359C70.9563 41.1536 71.0982 41.0187 71.2713 40.942C71.7396 40.7362 72.347 40.9889 72.7614 40.6893C73.0225 40.5005 73.1076 40.1569 73.1956 39.8445C73.6218 38.3536 74.4951 37.0294 75.6975 36.0509C75.5485 37.1399 75.4406 38.3793 76.1601 39.2113C76.4879 39.589 76.9477 39.8261 77.4132 40.0107C78.0816 40.2761 78.8153 40.4522 79.5206 40.3074C80.2259 40.1626 80.8858 39.6287 80.9979 38.9174C80.9737 39.9865 79.9562 40.7333 79.671 41.7655C79.5631 42.1517 79.5731 42.562 79.4979 42.9567C79.3063 43.9647 78.5868 44.774 77.9581 45.5861C75.9502 48.1982 74.6676 51.2945 74.2401 54.5618C74.211 54.9496 74.1299 55.3316 73.9988 55.6977C73.8598 55.9784 73.7024 56.2497 73.5277 56.5098C72.4875 58.2674 72.8082 60.4851 73.1616 62.4927C73.7136 65.6375 74.2642 68.7183 75.1582 71.7836C75.3115 72.3075 75.4846 72.8541 75.8749 73.236C75.7514 74.4755 74.5012 75.0406 73.3773 75.5758C72.2675 76.1053 71.2438 76.7988 70.3404 77.6331C70.0168 77.9312 69.6975 78.2663 69.5797 78.6908C69.469 79.0897 69.5485 79.5285 69.4066 79.9161C69.2647 80.3036 68.6971 80.5819 68.4473 80.2554C68.1351 79.0869 68.6687 77.8645 68.6445 76.6548C68.6275 75.8385 68.3607 75.0448 68.3224 74.2285C68.2855 73.3042 68.558 72.397 68.8475 71.5195C69.6535 69.0761 70.627 66.6554 70.9066 64.0984C71.1862 61.5414 70.6639 58.7487 68.8503 56.9243C66.6975 54.7493 65.5026 51.8004 63.1952 49.8028C62.829 49.4862 62.4147 49.0929 62.4757 48.613C62.5178 48.4017 62.6109 48.2038 62.7467 48.0366C63.5386 46.9178 64.5916 46.0049 65.443 44.9344C66.2945 43.8639 66.9757 42.6315 66.821 41.2686Z" fill="#3F3D56"/>
<path d="M59.2444 43.5587C59.1025 43.7006 59.0046 43.8966 58.84 44.0187C58.6477 44.1374 58.4285 44.2053 58.2028 44.216C57.3676 44.3429 56.5255 44.4183 55.681 44.4417C54.9715 44.4417 54.235 44.3793 53.5524 44.5738C52.6002 44.8435 51.8395 45.596 51.3627 46.4621C50.8859 47.3281 50.6602 48.3078 50.4772 49.2832C50.0736 51.4321 49.8576 53.6121 49.8315 55.7985C51.0012 54.8652 52.0437 53.7827 52.9322 52.5784C53.6134 51.6542 54.2307 50.6319 55.2028 50.0143C55.6498 49.7304 56.1522 49.543 56.602 49.2661C57.5401 48.6883 58.19 47.7541 58.8144 46.8525C59.2742 46.1838 60.6039 44.8776 60.7089 44.0769C60.7983 43.3116 59.7411 42.9382 59.2444 43.5587Z" fill="#3F3D56"/>
<path d="M64.1886 30.1944C64.3638 30.2997 64.5317 30.4168 64.691 30.545C65.6545 31.218 66.9445 31.0931 68.1096 30.9397C68.4672 30.8943 68.8347 30.8432 69.1413 30.6558C69.6337 30.352 69.865 29.7273 69.8168 29.1494C69.7685 28.5716 69.4776 28.0392 69.1228 27.5877C68.6528 26.9902 68.0665 26.4944 67.3993 26.1303C66.7322 25.7662 65.9981 25.5413 65.2416 25.4694C64.8498 25.418 64.4515 25.4603 64.0793 25.5929C63.621 25.7817 63.2761 26.1707 62.8532 26.4306C61.6058 27.1972 59.6843 26.8565 58.8797 28.0803C58.2908 28.9833 58.7108 30.21 58.4327 31.2478C58.2255 32.023 57.6281 32.7286 57.743 33.5195C57.8069 33.9454 58.0737 34.3174 58.2865 34.6979C58.7754 35.5726 59.0015 36.5699 58.9379 37.5701C59.4843 37.9562 60.2463 37.3557 60.3982 36.7054C60.55 36.0552 60.3755 35.3623 60.5046 34.7064C60.7331 33.5549 61.7491 32.7102 62.2075 31.6539C62.5368 30.8971 63.0732 29.6194 64.1886 30.1944Z" fill="#3F3D56"/>
<path d="M50.7695 42.7977C50.7269 43.0561 50.7 43.3414 50.8433 43.5601C51.1271 43.986 51.7771 43.8327 52.288 43.8966C53.0841 43.9945 53.6716 44.7484 53.8263 45.5407C53.9809 46.3329 53.7965 47.1393 53.5949 47.9173C53.1389 49.6807 52.5959 51.419 51.9658 53.1321C50.2714 52.932 48.4876 52.2803 47.5879 50.8335C46.7705 49.5174 46.8542 47.8407 46.3348 46.3812C45.9701 45.3532 45.3159 44.4588 44.6688 43.5814C45.709 43.712 46.4526 42.5222 46.5136 41.4744C46.5746 40.4266 46.2454 39.3632 46.4696 38.3396C46.5221 38.0968 50.6219 38.8621 51.0207 39.1389C52.173 39.9382 50.9512 41.6874 50.7695 42.7977Z" fill="#FBBEBE"/>
<path opacity="0.1" d="M50.7695 42.7977C50.7269 43.0561 50.7 43.3414 50.8433 43.5601C51.1271 43.986 51.7771 43.8327 52.288 43.8966C53.0841 43.9945 53.6716 44.7484 53.8263 45.5407C53.9809 46.3329 53.7965 47.1393 53.5949 47.9173C53.1389 49.6807 52.5959 51.419 51.9658 53.1321C50.2714 52.932 48.4876 52.2803 47.5879 50.8335C46.7705 49.5174 46.8542 47.8407 46.3348 46.3812C45.9701 45.3532 45.3159 44.4588 44.6688 43.5814C45.709 43.712 46.4526 42.5222 46.5136 41.4744C46.5746 40.4266 46.2454 39.3632 46.4696 38.3396C46.5221 38.0968 50.6219 38.8621 51.0207 39.1389C52.173 39.9382 50.9512 41.6874 50.7695 42.7977Z" fill="black"/>
<path d="M49.857 41.084C52.9137 41.084 55.3915 38.605 55.3915 35.5469C55.3915 32.4889 52.9137 30.0098 49.857 30.0098C46.8004 30.0098 44.3225 32.4889 44.3225 35.5469C44.3225 38.605 46.8004 41.084 49.857 41.084Z" fill="#FBBEBE"/>
<path d="M48.1527 42.0026C48.3542 41.6874 48.0107 41.2473 48.1683 40.9079C48.2619 40.7035 48.4989 40.6155 48.682 40.482C48.9116 40.2951 49.0947 40.0574 49.217 39.7877C50.0787 38.1312 50.3395 36.2271 49.9549 34.3997C49.8244 33.7864 49.708 32.9714 50.2685 32.696C50.4239 32.6266 50.5942 32.5973 50.7638 32.6108C51.7742 32.6435 52.7506 33.3207 53.7312 33.0808C54.0659 32.9897 54.3648 32.7986 54.588 32.5329C54.8111 32.2673 54.9479 31.9398 54.98 31.5943C55.0438 30.6771 54.357 29.8905 53.6815 29.2729C52.4653 28.1542 50.612 27.9057 48.9601 27.8787L45.8878 27.8276C44.9043 27.8106 43.8017 27.8418 43.1177 28.5474C42.1328 29.5626 42.6281 31.2237 42.4862 32.6307C42.3655 33.7536 41.804 34.7827 40.9252 35.4915C40.288 35.9998 39.411 36.4854 39.4223 37.2975C39.4223 37.5814 39.5444 37.8398 39.6224 38.1082C39.936 39.1701 39.6366 40.3443 39.0349 41.2742C38.4332 42.2042 37.5534 42.9197 36.6409 43.5459C36.1527 43.8795 35.6475 44.2004 35.2615 44.6533C34.8383 45.1764 34.587 45.8176 34.542 46.489C34.4813 47.0021 34.5867 47.5212 34.8429 47.9699C35.4431 48.9296 36.8835 49.0702 37.8698 48.5136C38.8561 47.9571 39.4578 46.9036 39.8566 45.8445C40.095 45.2155 40.3376 44.4957 40.9479 44.2132C41.7198 43.854 42.6224 44.4219 43.1248 45.1104C43.6271 45.799 43.9365 46.6395 44.5793 47.1989C45.5869 48.0763 47.3012 47.9344 48.1527 46.9036C48.7615 46.1639 48.8963 45.1403 48.8622 44.1819C48.8453 43.4014 48.5984 42.6433 48.1527 42.0026Z" fill="#3F3D56"/>
<path d="M50.1394 49.2193C49.5079 49.3541 48.848 49.056 48.3783 48.6102C47.9086 48.1644 47.5921 47.5894 47.2629 47.0328C46.4282 45.629 45.4713 44.3016 44.4034 43.066C43.4724 41.9912 42.1768 40.8994 40.7946 41.2317C40.3318 41.3653 39.9024 41.5951 39.5344 41.906C38.3157 42.8714 37.3618 44.1304 36.7619 45.5652C36.162 46.9999 35.9358 48.5634 36.1044 50.1095C36.2123 51.0138 36.4578 51.8984 36.56 52.807C36.6288 53.556 36.6487 54.3086 36.6196 55.0602C36.5813 57.3489 36.5032 59.7696 35.27 61.6976C33.3585 64.6791 32.3353 68.2399 30.9318 71.494C30.174 73.2531 29.7199 75.1258 29.2743 76.9885C29.0103 78.094 28.7468 79.1991 28.4838 80.3036L26.7667 87.5303C26.5893 88.2756 26.4119 89.0565 26.5993 89.8019C26.8831 90.915 27.929 91.693 29.0316 92.0096C30.1343 92.3262 31.3022 92.2723 32.4474 92.2822C34.6385 92.3035 36.8466 92.5761 38.9029 93.3371C39.4904 93.5543 40.0765 93.8142 40.7023 93.8653C41.3282 93.9164 41.9512 93.7531 42.5372 93.5259C44.1366 92.9069 45.5074 91.8222 46.9805 90.9462C47.9006 90.3915 48.8696 89.9224 49.8755 89.5449C50.3807 89.3561 50.9227 89.1772 51.2704 88.764C51.533 88.4531 51.6508 88.0471 51.7373 87.6495C52.217 85.412 51.8948 83.0935 51.7373 80.8105C51.5798 78.5275 50.216 76.1153 51.3442 74.1248C51.5713 73.723 51.8423 73.3369 51.9587 72.891C52.112 72.3089 51.9828 71.6828 52.112 71.095C52.207 70.6606 52.4355 70.2702 52.5916 69.8542C52.8641 69.1216 52.901 68.3236 52.8981 67.5414C52.8917 65.8238 52.7111 64.1113 52.3589 62.4302C51.9119 60.3005 53.3906 58.195 54.2378 56.1832C54.5415 55.4634 54.9715 54.7833 55.0978 54.0124C55.2113 53.3167 55.0651 52.6082 54.9559 51.9111C54.7928 50.8307 54.7263 49.7379 54.7572 48.6457C54.7841 47.666 54.8877 46.6679 54.6536 45.7153C54.4194 44.7626 53.751 43.8383 52.7903 43.6424C52.6826 43.6108 52.5692 43.6035 52.4583 43.6209C52.3474 43.6383 52.2417 43.6801 52.1489 43.7432C52.038 43.852 51.9598 43.9897 51.9232 44.1408C51.611 45.0977 51.672 46.1284 51.4975 47.1223C51.3229 48.1161 51.1186 49.0091 50.1394 49.2193Z" fill="#F86D70"/>
<path d="M36.7473 55.3172C36.8055 54.9239 36.6224 54.4014 36.2251 54.4156C35.8589 54.4298 35.6957 54.8884 35.6971 55.2561C35.6986 55.6238 35.7482 56.0455 35.4885 56.3039C35.2586 56.5325 34.8783 56.5254 34.6115 56.7114C34.5174 56.7786 34.4408 56.8674 34.3881 56.9705C34.3355 57.0735 34.3085 57.1877 34.3093 57.3034C34.3093 57.5008 34.3987 57.6896 34.4043 57.8869C34.41 58.0843 34.278 58.3129 34.0822 58.3001C33.9816 58.469 33.9397 58.6664 33.9631 58.8616C33.9865 59.0568 34.0737 59.2388 34.2113 59.3791C34.3135 59.4785 34.4469 59.5637 34.481 59.7028C34.4918 59.8004 34.4841 59.8992 34.4583 59.9939C34.3987 60.3843 34.6683 60.8216 35.0614 60.8642C34.8414 61.0218 34.8854 61.3909 35.0869 61.5741C35.2884 61.7572 35.5779 61.7927 35.849 61.7927C36.4642 61.7893 37.0725 61.6633 37.6385 61.4222C37.8323 61.3582 38.0037 61.2399 38.1323 61.0814C38.192 60.9997 38.2207 60.8994 38.2131 60.7984C38.2056 60.6975 38.1623 60.6025 38.0912 60.5306C38.3665 60.576 38.6971 60.6015 38.8774 60.3886C39.1285 60.0904 38.8589 59.6489 38.5935 59.3607C38.7036 59.3443 38.8064 59.2959 38.8892 59.2216C38.972 59.1472 39.0312 59.0502 39.0593 58.9425C39.0874 58.8348 39.0833 58.7212 39.0474 58.6158C39.0115 58.5104 38.9455 58.4179 38.8575 58.3498C38.7667 58.2831 38.6432 58.2248 38.6304 58.1127C38.6177 58.0005 38.7127 57.9281 38.7525 57.8287C38.8433 57.6058 38.6361 57.3787 38.436 57.2438C37.962 56.9286 37.2638 56.9343 36.8424 56.6163C36.4209 56.2982 36.6863 55.7431 36.7473 55.3172Z" fill="#BE6F72"/>
<path d="M66.0235 33.7736C65.6797 33.8083 65.3339 33.8163 64.9889 33.7977C64.9301 33.7913 64.8711 33.8083 64.8247 33.8449C64.7782 33.8815 64.748 33.935 64.7406 33.9937L64.0807 38.9458C64.0299 39.3053 63.8828 39.6443 63.655 39.9269C63.4671 40.1517 63.3275 40.4128 63.2447 40.694C63.162 40.9751 63.1379 41.2702 63.1739 41.561V49.9732C63.1739 49.9732 63.1313 51.0948 63.9927 51.0948C65.0237 51.2244 66.0668 51.2244 67.0977 51.0948C67.0977 51.0948 67.7874 50.9641 67.7874 49.9291V41.6462C67.84 41.3572 67.8292 41.0603 67.7557 40.7759C67.6822 40.4915 67.5477 40.2265 67.3617 39.9993C67.1414 39.7157 66.9991 39.3795 66.9487 39.0239L66.2633 33.9681C66.2555 33.9113 66.2264 33.8595 66.1818 33.8234C66.1373 33.7873 66.0806 33.7695 66.0235 33.7736V33.7736Z" fill="#3F3D56"/>
<path opacity="0.1" d="M66.0235 33.7736C65.6797 33.8083 65.3339 33.8163 64.9889 33.7977C64.9301 33.7913 64.8711 33.8083 64.8247 33.8449C64.7782 33.8815 64.748 33.935 64.7406 33.9937L64.0807 38.9458C64.0299 39.3053 63.8828 39.6443 63.655 39.9269C63.4671 40.1517 63.3275 40.4128 63.2447 40.694C63.162 40.9751 63.1379 41.2702 63.1739 41.561V49.9732C63.1739 49.9732 63.1313 51.0948 63.9927 51.0948C65.0237 51.2244 66.0668 51.2244 67.0977 51.0948C67.0977 51.0948 67.7874 50.9641 67.7874 49.9291V41.6462C67.84 41.3572 67.8292 41.0603 67.7557 40.7759C67.6822 40.4915 67.5477 40.2265 67.3617 39.9993C67.1414 39.7157 66.9991 39.3795 66.9487 39.0239L66.2633 33.9681C66.2555 33.9113 66.2264 33.8595 66.1818 33.8234C66.1373 33.7873 66.0806 33.7695 66.0235 33.7736V33.7736Z" fill="black"/>
<path d="M66.0277 41.7115H64.9818C64.1158 41.7115 63.4137 42.4139 63.4137 43.2804V47.2174C63.4137 48.0838 64.1158 48.7862 64.9818 48.7862H66.0277C66.8937 48.7862 67.5958 48.0838 67.5958 47.2174V43.2804C67.5958 42.4139 66.8937 41.7115 66.0277 41.7115Z" fill="#6C63FF"/>
<path d="M80.0826 12.3749C79.7793 12.5417 79.4632 12.6841 79.1374 12.8008C79.081 12.8177 79.0333 12.8558 79.0044 12.9072C78.9755 12.9586 78.9678 13.0192 78.9827 13.0762L80.2798 17.9035C80.3726 18.2538 80.3686 18.6228 80.2685 18.9711C80.181 19.2509 80.1523 19.5458 80.184 19.8373C80.2158 20.1287 80.3073 20.4105 80.4529 20.6649L83.6913 28.4282C83.6913 28.4282 84.083 29.4788 84.8791 29.1466C85.8814 28.8684 86.8445 28.4649 87.7457 27.9455C87.7457 27.9455 88.3318 27.5593 87.9345 26.6052L84.7457 18.9612C84.683 18.6742 84.5587 18.4042 84.3816 18.1699C84.2045 17.9356 83.9787 17.7425 83.7197 17.6039C83.4077 17.4272 83.147 17.1723 82.9633 16.8642L80.3848 12.4629C80.3556 12.412 80.3078 12.3744 80.2514 12.358C80.1951 12.3416 80.1345 12.3476 80.0826 12.3749Z" fill="#3F3D56"/>
<path d="M83.1445 19.7004L82.1792 20.1034C81.38 20.437 81.0024 21.3557 81.3359 22.1554L82.8514 25.7887C83.1849 26.5884 84.1032 26.9661 84.9024 26.6324L85.8677 26.2295C86.6669 25.8958 87.0445 24.9771 86.7109 24.1774L85.1955 20.5441C84.862 19.7445 83.9437 19.3667 83.1445 19.7004Z" fill="#6C63FF"/>
<path d="M40.2582 42.1488C38.7326 42.7778 38.1295 44.7342 38.4871 46.3442C38.8447 47.9542 39.9218 49.2959 40.972 50.5723L43.9152 54.1643C44.7283 55.1581 45.6181 56.2045 46.8584 56.5509C48.672 57.0578 50.4857 55.9021 52.0538 54.8571C56.7345 51.7366 61.7379 49.13 66.9771 47.0825C67.4894 46.8837 68.0145 46.6821 68.4359 46.3272C69.3101 45.5917 69.5556 44.2359 69.0689 43.2037C68.5821 42.1715 67.4482 41.5 66.3059 41.4915C65.1635 41.4829 64.0523 42.0878 63.3655 43.0021C63.0377 43.438 62.7978 43.9363 62.4814 44.3793C61.681 45.4924 60.4322 46.1809 59.2103 46.8028C56.2642 48.3066 53.2315 49.6341 50.128 50.7782C49.5604 50.9854 48.9204 51.1828 48.3854 50.9088C48.0576 50.7398 47.8362 50.4204 47.6375 50.108C46.7322 48.6823 46.0121 47.147 45.4947 45.5392C45.1072 44.3324 44.7936 43.0177 43.8627 42.1602C42.5429 40.9448 40.1531 41.2359 39.164 42.7281C39.164 42.7281 38.0046 44.4247 38.7142 45.1346C39.4237 45.8445 40.2582 42.1488 40.2582 42.1488Z" fill="#FBBEBE"/>
<path d="M119.847 36.2738C120.055 36.8261 120.06 37.4309 120.03 38.0201C119.994 38.7385 119.813 39.5819 119.146 39.8559C118.712 40.0305 118.176 39.8985 117.79 40.1626C117.321 40.4806 117.344 41.1649 117.416 41.7243C117.617 43.2619 117.842 44.8563 118.679 46.1568C119.129 46.8539 119.738 47.4346 120.355 47.9897C121.586 49.1 122.935 50.1847 124.552 50.5553C124.815 50.6295 125.092 50.6412 125.361 50.5893C125.625 50.5075 125.866 50.3611 126.06 50.1634C126.997 49.303 127.479 48.0749 128.104 46.9618C128.545 46.1653 129.072 45.4001 129.32 44.5227C129.524 43.756 129.511 42.9474 129.281 42.1881C129.05 41.4288 128.613 40.7489 128.017 40.225C127.74 39.9879 127.434 39.7892 127.166 39.5435C126.465 38.9075 126.056 37.9946 125.889 37.0632C125.721 36.1318 125.747 35.1735 125.827 34.2237C124.408 34.1143 122.999 34.2861 121.614 34.563C120.998 34.6865 120.131 34.7433 119.573 35.0372C118.946 35.3708 119.676 35.7982 119.847 36.2738Z" fill="#FBBEBE"/>
<path opacity="0.1" d="M119.847 36.2738C120.055 36.8261 120.06 37.4309 120.03 38.0201C119.994 38.7385 119.813 39.5819 119.146 39.8559C118.712 40.0305 118.176 39.8985 117.79 40.1626C117.321 40.4806 117.344 41.1649 117.416 41.7243C117.617 43.2619 117.842 44.8563 118.679 46.1568C119.129 46.8539 119.738 47.4346 120.355 47.9897C121.586 49.1 122.935 50.1847 124.552 50.5553C124.815 50.6295 125.092 50.6412 125.361 50.5893C125.625 50.5075 125.866 50.3611 126.06 50.1634C126.997 49.303 127.479 48.0749 128.104 46.9618C128.545 46.1653 129.072 45.4001 129.32 44.5227C129.524 43.756 129.511 42.9474 129.281 42.1881C129.05 41.4288 128.613 40.7489 128.017 40.225C127.74 39.9879 127.434 39.7892 127.166 39.5435C126.465 38.9075 126.056 37.9946 125.889 37.0632C125.721 36.1318 125.747 35.1735 125.827 34.2237C124.408 34.1143 122.999 34.2861 121.614 34.563C120.998 34.6865 120.131 34.7433 119.573 35.0372C118.946 35.3708 119.676 35.7982 119.847 36.2738Z" fill="black"/>
<path d="M111.929 40.4522C109.624 39.6614 108.523 36.572 106.11 36.2256C105.73 36.1702 105.34 36.1915 104.967 36.1035C103.577 35.7741 102.98 34.1669 102.578 32.7968C101.224 28.2294 99.4562 23.76 96.9444 19.7108C95.8844 18.0071 94.2084 16.6072 93.4435 14.7416C93.2675 14.3157 93.1781 13.8301 92.8617 13.4937C92.5452 13.1572 91.8683 13.1089 91.6966 13.5377C91.6487 13.6896 91.638 13.8507 91.6653 14.0076L91.8314 15.7752L88.9449 15.5154C88.6779 15.4699 88.4039 15.4893 88.146 15.5722C87.8675 15.7116 87.6455 15.9428 87.5173 16.2267C86.541 18.0625 87.5812 20.4676 89.3039 21.6289C91.3162 22.9848 94.1899 23.1907 95.5267 25.2138C96.3214 26.4178 96.337 27.9668 96.8607 29.3113C97.1105 29.9544 97.4752 30.5451 97.7661 31.1683C98.321 32.3567 98.6048 33.6487 99.0348 34.8867C99.6507 36.6572 100.563 38.3069 101.473 39.9468C102.174 41.2132 102.892 42.5023 103.97 43.4706C104.68 44.1067 105.514 44.578 106.349 45.0324C108.401 46.154 110.82 47.233 112.995 46.3726C113.119 44.4332 112.633 42.2709 111.929 40.4522Z" fill="#FBBEBE"/>
<path d="M118.926 101.57C118.752 103.423 117.628 105.101 117.365 106.885C115.634 106.613 113.93 106.264 112.281 105.867C112.078 105.818 111.876 105.769 111.673 105.725C112.607 103.169 111.794 100.307 112.041 97.585C112.065 97.3238 112.099 97.0626 112.144 96.8042C114.283 96.0744 116.214 95.1005 118.457 95.3844C118.501 95.8387 118.546 96.2945 118.59 96.7488C118.68 97.6565 118.769 98.5633 118.857 99.4691C118.947 100.166 118.97 100.869 118.926 101.57V101.57Z" fill="#FBBEBE"/>
<path d="M133.716 106.204C132.876 106.46 132.013 106.683 131.112 106.866C130.962 106.897 130.81 106.927 130.658 106.955C129.736 107.129 128.802 107.255 127.858 107.342C127.762 105.368 126.439 103.554 126.246 101.528C126.207 101.024 126.212 100.518 126.262 100.016C126.279 99.8169 126.299 99.6181 126.317 99.4194L126.717 95.3347C127.036 95.2946 127.357 95.2789 127.678 95.2879C129.523 95.3319 131.202 96.1312 133.029 96.7545C133.166 97.6162 133.213 98.4897 133.171 99.3612C133.102 101.579 132.746 103.823 133.569 105.858C133.616 105.973 133.667 106.088 133.716 106.204Z" fill="#FBBEBE"/>
<path d="M109.762 75.0633C110.01 76.9999 109.021 78.8541 108.592 80.758C108.309 82.0173 108.27 83.3136 108.232 84.6055L108.008 92.3447C107.985 93.1185 107.965 93.9064 108.201 94.649C108.675 96.1369 110.135 97.1421 111.655 97.4999C113.175 97.8576 114.764 97.6759 116.312 97.4715C117.072 97.3707 117.863 97.2528 118.492 96.8141C119.356 96.2107 119.734 95.136 120.06 94.1336L120.981 91.304C122.041 93.692 121.593 96.303 122.229 98.8373C122.269 99.0716 122.367 99.2924 122.512 99.4804C122.781 99.7786 123.222 99.8254 123.624 99.8538C126.405 100.05 129.225 100.244 131.961 99.7119C132.713 99.5699 133.498 99.3399 134.017 98.7748C134.622 98.1175 134.727 97.1506 134.72 96.2576C134.681 93.1895 133.573 90.2292 133.326 87.1711C133.22 85.8606 133.272 84.5431 133.225 83.2284C133.188 82.2396 133.096 81.2537 132.949 80.2753C132.902 79.8271 132.779 79.3902 132.585 78.9833C132.16 78.1882 131.275 77.7566 130.438 77.4215C123.933 74.7779 116.778 74.8035 109.762 75.0633Z" fill="#F86D70"/>
<path d="M121.806 36.9667C125.176 36.9667 127.908 34.2334 127.908 30.8617C127.908 27.49 125.176 24.7567 121.806 24.7567C118.436 24.7567 115.704 27.49 115.704 30.8617C115.704 34.2334 118.436 36.9667 121.806 36.9667Z" fill="#FBBEBE"/>
<path d="M127.125 41.615C126.672 42.6088 125.959 43.6027 124.899 43.8554C123.924 44.0896 122.891 43.6197 122.173 42.9197C121.455 42.2198 120.986 41.3112 120.487 40.4408C120.124 39.8048 119.72 39.163 119.105 38.7627C118.265 38.2175 117.181 38.2317 116.19 38.3921C115.2 38.5525 114.216 38.8393 113.21 38.774C111.957 38.6903 110.68 38.0641 109.498 38.4816C109.881 40.1966 109.743 42.0821 109.699 43.8398C109.707 44.1112 109.668 44.3819 109.586 44.6405C109.483 44.8817 109.343 45.1057 109.173 45.305L108.038 46.7687C109.255 47.6802 110.308 48.87 110.734 50.3309C110.974 51.1629 110.9 52.046 110.891 52.9121C110.864 55.4549 111.416 57.9877 111.242 60.5249C111.038 63.4964 109.851 66.3047 109.24 69.2195C108.716 71.7217 108.617 74.2944 108.947 76.8295C115.308 79.0315 121.861 80.1588 128.585 80.528C129.773 80.5933 131.056 80.6032 132.03 79.9203C132.841 79.3524 133.295 78.3798 133.45 77.4002C133.604 76.4206 133.498 75.4239 133.39 74.4386C133.098 71.7741 132.806 69.1097 132.514 66.4453C132.348 64.929 132.182 63.4041 132.29 61.8836C132.371 60.7478 132.604 59.6332 132.835 58.5216L134.254 51.6982C134.457 50.7285 134.661 49.7517 135.063 48.8473C135.392 48.109 135.848 47.4275 136.211 46.7091C136.644 45.8477 136.943 44.9251 137.097 43.9732C137.158 43.6969 137.154 43.4101 137.085 43.1356C136.933 42.6699 136.469 42.3902 136.037 42.1616C133.397 40.7739 130.569 39.7813 127.641 39.2156C127.442 40.0518 127.481 40.8355 127.125 41.615Z" fill="#E3E8F4"/>
<path d="M126.536 37.5261C127.245 36.1659 128.572 35.2118 129.343 33.8829C129.769 33.1295 130.007 32.2845 130.037 31.4195C130.067 30.5545 129.888 29.695 129.516 28.9137C129.245 28.36 128.877 27.8518 128.664 27.2725C128.427 26.6137 128.405 25.8882 128.131 25.2436C127.755 24.3605 126.94 23.7245 126.053 23.3582C125.166 22.9919 124.208 22.8599 123.253 22.7321L120.029 22.2976C119.562 22.2352 119.078 22.1727 118.624 22.2976C118.17 22.4226 117.747 22.7931 117.71 23.2645C117.666 23.8225 118.156 24.3421 118.042 24.8901C118.001 25.0832 117.888 25.2791 117.953 25.4665C118.011 25.5917 118.112 25.6923 118.237 25.7505C119.002 26.1764 119.915 26.2148 120.744 26.493C121.573 26.7713 122.405 27.4698 122.321 28.3387C122.275 28.8058 121.975 29.2914 122.179 29.7102C122.375 30.0978 122.889 30.1688 123.299 30.2895C124.626 30.6743 125.556 32.1139 125.363 33.484C125.304 33.9099 125.151 34.3174 125.119 34.7447C125.016 36.2412 125.251 36.6685 126.473 37.5388L126.536 37.5261Z" fill="#3F3D56"/>
<path d="M134.825 43.9973C134.831 44.2807 134.779 44.5625 134.673 44.8251C134.23 45.7692 132.875 45.7096 131.976 46.2448C130.858 46.9121 130.611 48.4015 130.509 49.6991C130.393 51.1686 130.313 52.6593 130.614 54.1004C130.915 55.5415 131.639 56.947 132.848 57.7918C134.319 58.8155 136.32 58.8509 138.001 58.2277C139.681 57.6044 141.084 56.399 142.302 55.0815C143.457 53.8321 144.492 52.4393 145.112 50.8534C145.221 50.5694 145.318 50.2685 145.23 49.9845C145.098 49.5586 144.633 49.3655 144.256 49.1326C143.375 48.6002 142.787 47.6717 142.482 46.6906C142.177 45.7096 142.126 44.6661 142.116 43.6367C142.105 42.5676 142.102 41.3992 141.421 40.5743C140.739 39.7494 139.559 39.518 138.483 39.5265C137.603 39.5265 135.168 39.6103 134.568 40.3784C134.075 41.0173 134.86 43.083 134.825 43.9973Z" fill="#BE6F72"/>
<path opacity="0.1" d="M134.825 43.9973C134.831 44.2807 134.779 44.5625 134.673 44.8251C134.23 45.7692 132.875 45.7096 131.976 46.2448C130.858 46.9121 130.611 48.4015 130.509 49.6991C130.393 51.1686 130.313 52.6593 130.614 54.1004C130.915 55.5415 131.639 56.947 132.848 57.7918C134.319 58.8155 136.32 58.8509 138.001 58.2277C139.681 57.6044 141.084 56.399 142.302 55.0815C143.457 53.8321 144.492 52.4393 145.112 50.8534C145.221 50.5694 145.318 50.2685 145.23 49.9845C145.098 49.5586 144.633 49.3655 144.256 49.1326C143.375 48.6002 142.787 47.6717 142.482 46.6906C142.177 45.7096 142.126 44.6661 142.116 43.6367C142.105 42.5676 142.102 41.3992 141.421 40.5743C140.739 39.7494 139.559 39.518 138.483 39.5265C137.603 39.5265 135.168 39.6103 134.568 40.3784C134.075 41.0173 134.86 43.083 134.825 43.9973Z" fill="black"/>
<path d="M127.258 82.0727C127.302 82.289 127.404 82.4893 127.553 82.6519C127.693 82.7626 127.857 82.8399 128.031 82.8777C132.689 84.2449 137.664 83.6997 142.486 83.1418C141.826 81.1314 141.162 79.0983 140.979 76.9899C140.827 75.2507 140.998 73.4405 140.382 71.8092C140.2 71.3264 129.614 73.5484 128.569 73.7287C128.034 73.821 127.418 73.7897 127.039 74.2143C126.582 74.7282 126.544 75.9521 126.496 76.5924C126.36 78.4423 126.741 80.3051 127.258 82.0727Z" fill="#BE6F72"/>
<path d="M137.863 104.61C137.011 105.005 136.133 105.372 135.223 105.702C134.731 105.881 134.229 106.048 133.716 106.204C132.876 106.46 132.013 106.683 131.112 106.866C130.598 105.563 130.084 104.259 129.57 102.955C129.191 101.995 128.812 101.031 128.495 100.05C128.275 99.3798 128.094 98.6977 127.953 98.0067C127.489 95.6581 127.61 93.2312 128.305 90.9405C130.272 91.3111 132.195 91.5524 134.132 91.8336C135.167 91.9755 136.204 92.1431 137.254 92.3404C137.336 93.0247 137.411 93.7091 137.478 94.3934C137.58 95.4497 137.664 96.506 137.729 97.5623C137.874 99.9097 137.919 102.259 137.863 104.61Z" fill="#BE6F72"/>
<path opacity="0.1" d="M137.863 104.61C137.011 105.005 136.133 105.372 135.223 105.702C134.731 105.881 134.229 106.048 133.716 106.204C132.876 106.46 132.013 106.683 131.112 106.866C130.598 105.563 130.084 104.259 129.57 102.955C129.191 101.995 128.812 101.031 128.495 100.05C128.275 99.3798 128.094 98.6977 127.953 98.0067C127.489 95.6581 127.61 93.2312 128.305 90.9405C130.272 91.3111 132.195 91.5524 134.132 91.8336C135.167 91.9755 136.204 92.1431 137.254 92.3404C137.336 93.0247 137.411 93.7091 137.478 94.3934C137.58 95.4497 137.664 96.506 137.729 97.5623C137.874 99.9097 137.919 102.259 137.863 104.61Z" fill="black"/>
<path d="M148.776 98.4582C148.787 99.276 148.554 100.111 148.339 100.913C148.323 100.97 148.309 101.025 148.295 101.082C147.781 100.922 147.339 100.59 147.042 100.142C146.888 99.8991 146.775 99.6331 146.705 99.3541C146.063 99.7914 145.415 100.224 144.761 100.653C142.623 102.059 140.362 103.454 137.863 104.61C137.011 105.005 136.133 105.372 135.223 105.702C135.034 105.039 134.854 104.372 134.684 103.701C134.498 103.011 134.352 102.309 134.247 101.602C134.039 99.9939 134.2 98.36 134.718 96.8241L134.782 96.6395C135.023 95.9564 135.335 95.3002 135.712 94.6816C136.065 94.1137 136.764 94.2088 137.478 94.3977C137.802 94.4814 138.13 94.5822 138.428 94.6447C140.282 95.0337 142.208 94.6319 144.104 94.7384C145.008 94.7835 145.893 95.009 146.708 95.4015C147.621 95.86 148.356 96.5614 148.644 97.5311C148.685 97.6708 148.716 97.8131 148.737 97.957C148.761 98.1231 148.774 98.2905 148.776 98.4582Z" fill="#BE6F72"/>
<path d="M114.635 33.0708C111.705 30.2313 108.374 27.8248 104.967 25.5745C104.08 25.0182 103.227 24.4099 102.412 23.7529C101.561 23.043 100.819 22.2096 99.9146 21.5707C99.0107 20.9318 97.8924 20.4931 96.8068 20.7032C95.7212 20.9134 94.7562 21.9526 94.9151 23.0402C95.057 23.9971 95.917 24.653 96.7117 25.2025C98.216 26.2432 99.7273 27.2867 101.364 28.1031C101.932 28.3608 102.483 28.6549 103.014 28.9833C104.033 29.6705 104.775 30.687 105.546 31.6425C108.454 35.2569 112.017 38.2912 116.047 40.5871C116.095 40.6155 117.774 36.9908 117.703 36.5209C117.547 35.4404 115.407 33.8205 114.635 33.0708Z" fill="#BE6F72"/>
<path d="M139.699 78.952C137.437 79.094 135.267 79.8578 133.055 80.3448C130.843 80.8318 128.439 81.0206 126.385 80.0609L127.634 88.5922C127.704 89.0664 127.776 89.552 127.672 90.0191C127.577 90.4649 127.33 90.8852 127.352 91.3409C127.384 92.0621 128.061 92.569 128.698 92.9026C130.549 93.8804 132.623 94.3585 134.715 94.2898C134.561 94.9145 134.368 95.5321 134.212 96.1568C135.255 97.2769 136.96 97.3522 138.449 97.7071C139.584 97.9755 140.649 98.4412 141.761 98.7691C143.107 99.1664 144.504 99.3612 145.906 99.347C146.853 99.337 147.856 99.205 148.591 98.6144C149.495 97.886 149.776 96.648 149.972 95.5037C150.081 94.8648 150.182 94.2173 150.114 93.5728C150.04 92.8317 149.754 92.1303 149.47 91.4431L147.526 86.7224C147.172 85.8705 146.816 85.0059 146.39 84.1839C145 81.5246 142.692 78.766 139.699 78.952Z" fill="#3F3D56"/>
<path d="M141.431 49.4748C141.599 49.0331 141.909 48.6599 142.312 48.4139C142.715 48.1679 143.189 48.0631 143.659 48.1161C144.226 48.1956 144.733 48.5065 145.22 48.8104L147.93 50.5027C148.379 50.7701 148.81 51.067 149.22 51.3915C151.089 52.9419 151.81 55.4904 152.016 57.9111C152.221 60.3318 152.016 62.7937 152.497 65.1746C151.353 66.123 150.084 66.9252 148.94 67.8722C148.342 68.3677 147.736 68.866 147.282 69.5035C146.921 70.0046 146.664 70.5782 146.288 71.0652C145.672 71.8349 144.779 72.3315 143.8 72.4481C144.421 72.8087 144.768 73.5086 144.936 74.2057C145.103 74.9028 145.149 75.6255 145.335 76.3226C145.59 77.2696 146.119 78.1342 146.294 79.0997C146.416 79.7655 146.362 80.4485 146.406 81.1243C146.627 84.6212 149.37 87.6779 149.193 91.1762C147.898 90.7054 146.673 90.0611 145.552 89.261C145.046 88.8989 144.558 88.5071 144.08 88.1166L140.466 85.1848C138.707 83.765 136.932 82.314 135.534 80.5308C134.657 79.412 133.942 78.174 133.062 77.0581C132.182 75.9421 131.099 74.9284 129.756 74.4599C129.558 74.7566 129.208 74.9625 129.011 75.2592C128.976 75.306 128.948 75.3577 128.928 75.4125C128.904 75.5449 128.921 75.6814 128.975 75.8044C129.134 76.3786 129.229 76.9685 129.259 77.5635L129.348 78.6312C129.382 78.9141 129.382 79.2 129.348 79.483C129.213 80.3959 128.368 81.1044 127.455 81.2464C127.323 81.2749 127.186 81.2705 127.056 81.2336C126.802 81.1484 126.662 80.8801 126.585 80.6245C126.226 79.412 126.777 78.1328 126.821 76.8706C126.827 76.5504 126.816 76.23 126.788 75.9109L126.703 74.6515C125.879 74.4798 125.405 73.5938 125.186 72.7803C124.596 70.5839 124.001 68.3109 124.343 66.062C124.434 65.46 124.593 64.8495 124.485 64.2475C124.343 63.4425 123.764 62.7894 123.459 62.0312C122.466 59.5594 124.576 56.8761 124.38 54.2225C124.298 53.108 123.591 52.1397 123.165 51.1061C122.945 50.5037 122.659 49.9272 122.314 49.3868C121.88 48.7664 121.293 48.2694 120.724 47.7697C118.967 46.2269 117.3 44.5839 115.732 42.8488C114.927 42.7652 114.171 42.419 113.582 41.8634C113.207 41.5085 112.899 41.04 112.889 40.5246C112.88 40.0092 113.26 39.4683 113.775 39.4413C114.076 39.4257 114.357 39.5748 114.651 39.6401C115.57 39.8417 116.495 39.1645 116.906 38.314C117.316 37.4636 117.316 36.4854 117.309 35.5426C117.758 35.4628 118.22 35.5002 118.651 35.6511C119.082 35.8021 119.466 36.0615 119.768 36.4044C120.402 37.0944 120.815 37.9548 121.315 38.7471C121.518 39.099 121.779 39.4143 122.087 39.6798C122.769 40.2222 123.753 40.3244 124.349 40.9576C124.651 41.2813 124.818 41.7101 125.095 42.0565C125.873 43.0319 127.296 43.1512 128.359 43.7929C129.422 44.4346 130.161 45.6074 131.339 45.9879C131.765 46.1298 132.229 46.1483 132.651 46.3059C133.624 46.6679 134.219 47.7029 134.353 48.7323C134.488 49.7616 134.258 50.8023 134.026 51.816L133.479 54.1884C133.359 54.7138 133.266 55.3456 133.654 55.7204C133.837 55.8719 134.052 55.9801 134.283 56.037C135.276 56.3607 136.383 56.6787 137.317 56.2201C137.758 56.0015 138.104 55.6323 138.421 55.2547C139.806 53.622 140.727 51.4838 141.431 49.4748Z" fill="#6C63FF"/>
<path d="M152.632 97.754C152.436 99.0531 151.72 100.331 150.55 100.926C149.848 101.272 149.038 101.328 148.295 101.082C147.781 100.922 147.339 100.59 147.042 100.142C146.888 99.8991 146.775 99.6331 146.705 99.3541C146.705 99.3399 146.698 99.3243 146.695 99.3101C146.589 98.8077 146.544 98.2942 146.563 97.781C146.563 96.9843 146.61 96.1882 146.705 95.3972C146.785 94.7311 146.915 94.0722 147.097 93.4265C147.361 92.5051 147.741 91.6178 148.09 90.729C148.272 90.2605 148.447 89.7905 148.59 89.3092C148.676 89.0253 148.75 88.7328 148.81 88.4375L148.831 88.331C148.843 88.2714 148.852 88.2117 148.862 88.1521C149.004 87.3428 149.045 86.5052 149.41 85.774C150.262 84.0575 151.919 84.4962 152.172 86.0793C152.191 86.2019 152.202 86.3257 152.204 86.4498C152.243 88.4531 151.448 90.411 151.811 92.4214C151.914 92.9116 152.043 93.396 152.197 93.8724C152.325 94.3111 152.44 94.7555 152.528 95.2055C152.706 96.0431 152.741 96.9048 152.632 97.754Z" fill="#BE6F72"/>
<path d="M153.412 75.4778C153.45 76.2985 153.412 77.129 153.577 77.934C153.961 79.8365 155.422 81.5204 155.26 83.4541C155.22 83.9255 155.045 84.4323 154.634 84.6652C154.222 84.898 153.541 84.8795 153.406 85.3481C153.368 85.4787 153.388 85.6206 153.345 85.7498C153.256 86.0253 152.92 86.1431 152.636 86.136C152.352 86.1289 152.068 86.0352 151.774 86.0594C150.746 86.146 150.368 87.5231 149.451 87.9959C148.834 88.3139 148.032 88.1379 147.523 87.668C147.013 87.198 146.791 86.4654 146.83 85.7711C146.86 85.2473 147.026 84.7418 147.114 84.225C147.274 83.3036 147.191 82.3594 147.107 81.4281C146.984 80.0637 146.856 78.6823 146.407 77.3888C146.196 76.7784 145.915 76.1948 145.732 75.5758C145.471 74.6998 145.411 73.7784 145.384 72.8655C145.329 70.9445 145.461 68.8901 146.607 67.3454C147.469 66.1869 148.703 65.2456 149.678 64.1737C150.289 63.5021 150.465 63.292 151.139 63.8613C151.694 64.3284 152.274 64.973 152.336 65.6062C152.507 67.229 152.336 68.8248 152.64 70.4774C152.944 72.13 153.333 73.7812 153.412 75.4778Z" fill="#6C63FF"/>
<path d="M138.693 44.2075C142.69 44.2075 145.931 40.9657 145.931 36.9667C145.931 32.9677 142.69 29.7259 138.693 29.7259C134.696 29.7259 131.456 32.9677 131.456 36.9667C131.456 40.9657 134.696 44.2075 138.693 44.2075Z" fill="#BE6F72"/>
<path d="M145.32 50.8179C145.479 50.595 145.668 50.3551 145.938 50.3082C146.141 50.2929 146.345 50.3357 146.525 50.4318L148.431 51.2282C148.946 50.3773 149.25 49.4153 149.317 48.4228C149.356 47.8137 149.308 47.1961 149.424 46.597C149.597 45.7082 150.124 44.9117 150.246 44.0144C150.343 43.2903 150.168 42.562 150.063 41.8393C149.739 39.6074 150.087 37.3301 149.901 35.0826C149.715 32.8352 148.814 30.4272 146.81 29.3951C146.243 29.1111 145.631 28.9407 145.041 28.7164C143.725 28.2152 142.546 27.4131 141.246 26.8707C139.946 26.3284 138.419 26.0799 137.159 26.7032C135.899 27.3265 135.165 29.0799 135.984 30.2242C136.254 30.6004 136.648 30.8674 137.026 31.1385C137.793 31.688 138.577 32.3666 138.754 33.2952C139.072 34.9662 137.335 36.2767 136.845 37.9108C136.665 38.549 136.649 39.2226 136.799 39.8687C137.01 40.837 137.527 41.7513 137.508 42.7423C137.494 43.8284 136.844 44.8123 136.722 45.8928C136.678 46.2889 136.705 46.6907 136.655 47.0854C136.568 47.606 136.414 48.1133 136.197 48.5946C135.062 51.4341 133.911 54.3035 132.223 56.8562C134.03 56.8869 135.816 56.4693 137.422 55.6409C137.191 56.7353 136.749 57.7741 136.12 58.6991C137.564 58.5319 138.953 58.047 140.187 57.2793C139.888 58.3524 139.454 59.3832 138.896 60.3474C138.944 60.2651 139.837 60.0635 140.002 59.9697C140.34 59.7773 140.612 59.4867 140.782 59.1363C141.265 58.2731 141.565 57.2324 142.012 56.3351C142.968 54.4118 144.074 52.567 145.32 50.8179V50.8179Z" fill="#3F3D56"/>
<path d="M90.4321 7.36593C90.0884 7.40057 89.7426 7.40864 89.3976 7.39007C89.3388 7.38364 89.2798 7.40057 89.2334 7.43721C89.1869 7.47386 89.1567 7.52729 89.1493 7.58599L88.4894 12.5381C88.4386 12.8976 88.2915 13.2366 88.0637 13.5192C87.8758 13.7441 87.7362 14.0052 87.6534 14.2863C87.5707 14.5674 87.5465 14.8625 87.5826 15.1534V23.5655C87.5826 23.5655 87.54 24.6871 88.4014 24.6871C89.4323 24.8167 90.4755 24.8167 91.5064 24.6871C91.5064 24.6871 92.1961 24.5565 92.1961 23.5215V15.2385C92.2487 14.9496 92.2379 14.6526 92.1644 14.3682C92.0908 14.0838 91.9564 13.8188 91.7704 13.5916C91.5501 13.308 91.4078 12.9718 91.3574 12.6162L90.672 7.56044C90.6642 7.5036 90.6351 7.45185 90.5905 7.41572C90.546 7.37959 90.4893 7.36179 90.4321 7.36593Z" fill="#3F3D56"/>
<path d="M90.4364 15.3039H89.3905C88.5245 15.3039 87.8224 16.0063 87.8224 16.8727V20.8097C87.8224 21.6762 88.5245 22.3786 89.3905 22.3786H90.4364C91.3024 22.3786 92.0045 21.6762 92.0045 20.8097V16.8727C92.0045 16.0063 91.3024 15.3039 90.4364 15.3039Z" fill="#6C63FF"/>
<path d="M100.224 14.6067C99.8802 14.6414 99.5343 14.6495 99.1894 14.6309C99.1306 14.6245 99.0716 14.6414 99.0251 14.678C98.9787 14.7147 98.9485 14.7681 98.941 14.8268L98.2811 19.779C98.2304 20.1384 98.0832 20.4775 97.8554 20.76C97.6676 20.9849 97.5279 21.246 97.4452 21.5271C97.3624 21.8082 97.3383 22.1033 97.3743 22.3942V30.8063C97.3743 30.8063 97.3318 31.9279 98.1931 31.9279C99.2241 32.0575 100.267 32.0575 101.298 31.9279C101.298 31.9279 101.988 31.7973 101.988 30.7623V22.4794C102.04 22.1904 102.03 21.8934 101.956 21.609C101.883 21.3246 101.748 21.0597 101.562 20.8324C101.342 20.5488 101.2 20.2126 101.149 19.857L100.464 14.8013C100.456 14.7444 100.427 14.6927 100.382 14.6565C100.338 14.6204 100.281 14.6026 100.224 14.6067Z" fill="#3F3D56"/>
<path d="M100.228 22.5447H99.1823C98.3163 22.5447 97.6142 23.2471 97.6142 24.1135V28.0505C97.6142 28.917 98.3163 29.6194 99.1823 29.6194H100.228C101.094 29.6194 101.796 28.917 101.796 28.0505V24.1135C101.796 23.2471 101.094 22.5447 100.228 22.5447Z" fill="#6C63FF"/>
<g opacity="0.2">
<path opacity="0.2" d="M89.2174 99.4421C89.2129 99.5952 89.1953 99.7477 89.1649 99.8979C88.1772 99.7407 87.1838 99.5988 86.1848 99.4719C86.1848 99.4322 86.1848 99.391 86.1848 99.3498C86.194 98.9241 86.3165 98.5085 86.5395 98.1459C86.8319 97.683 87.276 97.3934 87.7656 97.409C88.2552 97.4246 88.6795 97.7412 88.9421 98.2197C89.1406 98.5955 89.2357 99.0174 89.2174 99.4421V99.4421Z" fill="#3F3D56"/>
<path opacity="0.2" d="M89.297 97.0177C89.3317 95.9197 88.6803 95.0081 87.8421 94.9816C87.0039 94.9551 86.2963 95.8237 86.2616 96.9217C86.227 98.0197 86.8783 98.9313 87.7165 98.9578C88.5547 98.9843 89.2623 98.1157 89.297 97.0177Z" fill="#3F3D56"/>
<path opacity="0.2" d="M89.3744 94.5869C89.4091 93.489 88.7577 92.5774 87.9195 92.5509C87.0813 92.5244 86.3737 93.393 86.339 94.491C86.3044 95.589 86.9557 96.5006 87.7939 96.5271C88.6321 96.5536 89.3397 95.6849 89.3744 94.5869Z" fill="#3F3D56"/>
<path opacity="0.2" d="M89.4504 92.1563C89.4851 91.0583 88.8337 90.1467 87.9955 90.1202C87.1573 90.0937 86.4497 90.9623 86.415 92.0603C86.3803 93.1583 87.0317 94.0699 87.8699 94.0964C88.7081 94.1229 89.4157 93.2543 89.4504 92.1563Z" fill="#3F3D56"/>
<path opacity="0.2" d="M89.5279 89.7255C89.5625 88.6275 88.9112 87.7159 88.073 87.6894C87.2348 87.6629 86.5272 88.5316 86.4925 89.6296C86.4578 90.7276 87.1092 91.6391 87.9474 91.6656C88.7856 91.6921 89.4932 90.8235 89.5279 89.7255Z" fill="#3F3D56"/>
<path opacity="0.2" d="M82.8456 72.8584C82.6457 72.5877 82.4655 72.303 82.3063 72.0065L86.3167 71.4769L81.9998 71.3733C81.6146 70.4591 81.4198 69.4759 81.4273 68.4838C81.4349 67.4917 81.6447 66.5116 82.0438 65.6034L87.7372 68.7907L82.522 64.6961C83.0481 63.8448 83.744 63.1112 84.5663 62.541C85.3885 61.9709 86.3194 61.5765 87.3009 61.3824C88.2823 61.1884 89.2932 61.1989 90.2704 61.4133C91.2476 61.6277 92.1702 62.0413 92.9804 62.6284C93.7906 63.2156 94.4712 63.9635 94.9795 64.8256C95.4878 65.6876 95.813 66.6453 95.9348 67.6387C96.0565 68.6322 95.9722 69.6401 95.6872 70.5995C95.4021 71.5589 94.9223 72.4492 94.2779 73.2147C94.5887 73.6358 94.8528 74.0895 95.0655 74.5678L89.802 77.095L95.3834 75.4154C95.7349 76.5757 95.7915 77.8054 95.5482 78.9931C95.3049 80.1808 94.7692 81.2891 93.9898 82.2175C94.8002 83.3174 95.2847 84.6233 95.3881 85.9858C95.4916 87.3483 95.2096 88.7124 94.5746 89.9222C93.9396 91.1319 92.9771 92.1385 91.7972 92.8267C90.6173 93.5149 89.2676 93.8571 87.9025 93.814C86.5374 93.771 85.212 93.3444 84.0778 92.5832C82.9435 91.822 82.0463 90.7568 81.4887 89.5094C80.9312 88.262 80.7357 86.8829 80.9247 85.5296C81.1137 84.1763 81.6795 82.9035 82.5575 81.8569C81.5894 80.5424 81.0911 78.9404 81.1425 77.3085C81.194 75.6765 81.7923 74.1092 82.8413 72.8584H82.8456Z" fill="#6C63FF"/>
<path opacity="0.1" d="M95.6927 77.7679C95.6431 79.4008 95.0429 80.969 93.9898 82.2175C94.8001 83.3174 95.2847 84.6233 95.3881 85.9858C95.4916 87.3483 95.2096 88.7124 94.5746 89.9222C93.9396 91.1319 92.9771 92.1385 91.7972 92.8267C90.6173 93.5149 89.2676 93.8571 87.9025 93.814C86.5374 93.771 85.212 93.3444 84.0778 92.5832C82.9435 91.822 82.0463 90.7568 81.4887 89.5094C80.9312 88.262 80.7357 86.8829 80.9247 85.5296C81.1137 84.1763 81.6795 82.9036 82.5575 81.8569C81.6252 80.589 95.7183 76.9516 95.6927 77.7679Z" fill="black"/>
</g>
</svg>
