<svg width="21" height="15" viewBox="0 0 21 15" fill="none" xmlns="http://www.w3.org/2000/svg">
<path d="M0 1.14476C0 0.567256 0.4683 0.100006 1.04475 0.100006H9.45525C9.73234 0.100006 9.99807 0.210077 10.194 0.406006C10.3899 0.601935 10.5 0.867671 10.5 1.14476C10.5 1.42184 10.3899 1.68758 10.194 1.88351C9.99807 2.07943 9.73234 2.18951 9.45525 2.18951H1.04475C0.767665 2.18951 0.501929 2.07943 0.306 1.88351C0.110072 1.68758 0 1.42184 0 1.14476Z" fill="white"/>
<path d="M0 7.45002C0 6.87252 0.4683 6.40527 1.04475 6.40527H19.9552C20.2323 6.40527 20.4981 6.51534 20.694 6.71127C20.8899 6.9072 21 7.17294 21 7.45002C21 7.72711 20.8899 7.99284 20.694 8.18877C20.4981 8.3847 20.2323 8.49477 19.9552 8.49477H1.04475C0.767665 8.49477 0.501929 8.3847 0.306 8.18877C0.110072 7.99284 0 7.72711 0 7.45002Z" fill="white"/>
<path d="M1.04475 12.7105C0.767665 12.7105 0.501929 12.8206 0.306 13.0165C0.110072 13.2125 0 13.4782 0 13.7553C0 14.0324 0.110072 14.2981 0.306 14.494C0.501929 14.69 0.767665 14.8 1.04475 14.8H13.6553C13.9323 14.8 14.1981 14.69 14.394 14.494C14.5899 14.2981 14.7 14.0324 14.7 13.7553C14.7 13.4782 14.5899 13.2125 14.394 13.0165C14.1981 12.8206 13.9323 12.7105 13.6553 12.7105H1.04475Z" fill="white"/>
</svg>
