<svg width="18" height="21" viewBox="0 0 18 21" fill="none" xmlns="http://www.w3.org/2000/svg">
<path d="M18 15.9892L17.7946 15.8071C17.212 15.2858 16.702 14.6878 16.2785 14.0296C15.816 13.1211 15.5387 12.129 15.4631 11.1114V8.1144C15.4671 6.51616 14.8899 4.97146 13.8399 3.77052C12.7899 2.56959 11.3395 1.79509 9.76107 1.59254V0.809923C9.76107 0.595118 9.67612 0.389111 9.52489 0.237221C9.37367 0.085331 9.16856 0 8.9547 0C8.74083 0 8.53573 0.085331 8.3845 0.237221C8.23328 0.389111 8.14832 0.595118 8.14832 0.809923V1.60468C6.58405 1.82183 5.15112 2.60101 4.11495 3.79791C3.07878 4.9948 2.50957 6.52831 2.51275 8.1144V11.1114C2.4371 12.129 2.15987 13.1211 1.69732 14.0296C1.28107 14.6862 0.779312 15.284 0.205369 15.8071L0 15.9892V17.7H18V15.9892Z" fill="white"/>
<path d="M6.89999 18.3C6.97015 18.7989 7.22143 19.256 7.60742 19.5869C7.99342 19.9177 8.48806 20.1 8.99999 20.1C9.51193 20.1 10.0066 19.9177 10.3926 19.5869C10.7786 19.256 11.0298 18.7989 11.1 18.3H6.89999Z" fill="white"/>
</svg>
